<?xml version="1.0" standalone="no"?>
<!DOCTYPE svg PUBLIC "-//W3C//DTD SVG 1.1//EN" "http://www.w3.org/Graphics/SVG/1.1/DTD/svg11.dtd" >
<svg xmlns="http://www.w3.org/2000/svg">
<metadata>
This is a custom SVG webfont generated by Font Squirrel.
Copyright   : nan sakurai1999Efon201 forwin
</metadata>
<defs>
<font id="webfontxCeJUEsh" horiz-adv-x="1968" >
<font-face units-per-em="2048" ascent="1638" descent="-410" />
<missing-glyph horiz-adv-x="2048" />
<glyph unicode=" "  horiz-adv-x="2048" />
<glyph unicode="&#x09;" horiz-adv-x="2048" />
<glyph unicode="&#xa0;" horiz-adv-x="2048" />
<glyph unicode="!" horiz-adv-x="1720" d="M0 819q0 102 213 103q322 0 553 -103q-219 -66 -375 -98q-100 -10 -168 -10q-223 -1 -223 108zM213 1339q0 33 25.5 58.5t58.5 25.5q84 0 274 -223q141 -166 209 -342q-170 59 -334 195q-233 190 -233 286zM215 297q0 84 223 274q166 141 342 209q-59 -170 -194 -334 q-190 -233 -287 -233q-33 0 -58.5 25.5t-25.5 58.5zM711 1415q0 223 108 223q102 0 103 -213q0 -322 -103 -553q-66 219 -98 375q-10 100 -10 168zM717 213q0 322 102 553q66 -219 99 -375q10 -100 10 -168q0 -223 -109 -223q-102 0 -102 213zM858 780q170 -59 334 -194 q233 -190 233 -287q0 -33 -25.5 -58.5t-58.5 -25.5q-84 0 -274 223q-141 166 -209 342zM858 858q59 170 195 334q190 233 286 233q33 0 58.5 -25.5t25.5 -58.5q0 -84 -223 -274q-166 -141 -342 -209zM872 819q219 66 375 99q100 10 168 10q223 0 223 -109q0 -102 -213 -102 q-322 0 -553 102z" />
<glyph unicode="&#x22;" horiz-adv-x="1808" d="M0 946q0 180 147 283q90 61 199 61q80 0 156 -37v4q-2 23 -2 43q0 129 90 226.5t219 109.5q143 14 254 -74.5t125 -232.5q6 -55 -4 -106q86 59 192 59q143 0 244.5 -101.5t101.5 -244.5q0 -139 -93 -237.5t-232 -108.5q102 -100 102 -244q0 -145 -100.5 -245.5 t-245.5 -100.5q-150 0 -252 111q-43 47 -67 104q-31 -63 -80 -111q-98 -92 -236 -92q-145 0 -245.5 100.5t-100.5 245.5t107 248q-123 25 -201 120t-78 220zM524 795q0 -125 89 -214t214 -89t214 89t89 214t-89 214t-214 89t-214 -89t-89 -214z" />
<glyph unicode="#" horiz-adv-x="1662" d="M170 928q0 57 61 88q49 25 115 24q172 0 293 -112q61 -57 61 -115q0 -111 -176 -111q-174 0 -293 111q-61 58 -61 115zM379 311q0 100 84 213q111 147 227 148q100 0 101 -119q0 -104 -82 -213q-109 -145 -228 -145q-102 -1 -102 116zM684 1163q6 90 43 168 q47 100 125 96q76 -4 115 -110q27 -82 22 -172q-4 -88 -43 -168q-49 -100 -127 -96t-112 110q-29 82 -23 172zM850 557q0 121 102 121q115 0 226 -152q80 -111 79 -211q0 -119 -100 -118q-119 0 -227 149q-80 111 -80 211zM930 815q0 74 98 139q115 76 250 76q70 0 121 -24 q68 -31 67 -93q0 -68 -82 -129q-66 -45 -145 -67q-61 -16 -121 -17q-70 0 -121 23q-67 31 -67 92z" />
<glyph unicode="$" horiz-adv-x="1474" d="M119 905q0 37 12 72q47 131 180 131q35 0 66 -12q125 -49 125 -191q0 -33 -13 -69q-45 -133 -178 -134q-33 0 -67 15q-125 51 -125 188zM289 391q0 82 55 142.5t135 60.5q82 0 136.5 -59.5t54.5 -143.5q0 -82 -54.5 -142.5t-136.5 -60.5t-136 59.5t-54 143.5zM557 1231 q0 82 54.5 142.5t136.5 60.5t136 -60.5t54 -142.5t-54.5 -142.5t-135.5 -60.5q-82 0 -136.5 60.5t-54.5 142.5zM625 752q0 49 33.5 85.5t82.5 36.5t83 -36.5t34 -85.5q0 -51 -32.5 -88t-84.5 -37q-49 0 -82.5 38t-33.5 87zM797 358q0 131 114 185q39 18 78 18 q125 0 174 -123q16 -41 17 -80q0 -133 -115 -186q-35 -16 -76 -16q-125 0 -176 120q-16 39 -16 82zM969 881q0 82 55 142t137 60q80 0 135.5 -60t55.5 -142t-54.5 -142.5t-136.5 -60.5t-137 60.5t-55 142.5z" />
<glyph unicode="%" horiz-adv-x="1167" d="M-4 895q0 74 76 74q10 0 22 -4l316 -101l71 115q-94 27 -153.5 104.5t-59.5 173.5q0 121 84 206t205 85t206 -85t85 -206q0 -94 -55.5 -169.5t-145.5 -104.5l72 -102l299 94q12 4 22 4q31 0 52.5 -21.5t21.5 -52.5q0 -55 -51 -71l-268 -86l198 -345h-227l47 -311 q10 -74 -61 -84q-39 -6 -77 16.5t-42 59.5l-41 326h-43l-43 -340q-8 -70 -109 -70q-33 0 -50 25.5t-13 58.5l39 319h-230l191 330l-285 90q-53 17 -53 72z" />
<glyph unicode="&#x26;" horiz-adv-x="1181" d="M-2 911q0 31 21.5 52.5t52.5 21.5q12 0 24 -2l312 -100q20 35 69 65.5t90 34.5q-113 6 -189.5 87t-76.5 194q0 117 83 199.5t200 82.5t198.5 -83t81.5 -199q0 -111 -73.5 -192t-184.5 -89q51 -4 125 -111l299 95q12 4 23 4q33 0 54 -21.5t21 -54.5q0 -53 -51 -72 l-284 -100v-236l106 -378q2 -8 2 -21q0 -90 -78 -90q-80 0 -94 53l-106 381h-107l-106 -381q-14 -53 -97 -53q-76 0 -75 98q0 14 4 25l112 395v217l-305 107q-51 18 -51 71z" />
<glyph unicode="'" horiz-adv-x="1988" d="M14 573q0 33 11 76q41 174 129 303q-121 94 -121 250q0 131 90 224.5t221 93.5q113 0 198 -73t105 -183q115 25 242 24q88 0 174 -16q25 106 108.5 173.5t192.5 67.5q129 0 219 -92t90 -223q0 -123 -82 -215q166 -188 166 -387q0 -274 -311 -442q-258 -141 -557 -142 q-289 0 -553 135q-322 164 -322 426zM227 1225q0 -45 31 -76t76 -31t74.5 31t29.5 76q0 43 -30.5 73.5t-73.5 30.5q-45 0 -76 -29.5t-31 -74.5zM358 545q35 -61 123 -121q168 -115 414 -115q250 0 399 123q78 66 105 131l-92 37q-20 -49 -84 -98q-123 -94 -328 -94 q-211 0 -350 90q-72 47 -103 96l-4 8zM1260 1206q0 -45 29.5 -75.5t74.5 -30.5t75.5 30.5t30.5 75.5t-30.5 75t-75.5 30q-43 0 -73.5 -31t-30.5 -74z" />
<glyph unicode="(" horiz-adv-x="1488" d="M115 934q0 170 82 237.5t196 67.5q82 0 260 -104q18 162 150 307q76 84 137 117l59 -107q-45 -27 -104 -90q-100 -109 -117 -227h29q92 104 219 104q133 0 252 -88q78 -57 78 -201q0 -209 -160 -516q-147 -285 -235 -309q-37 -10 -68 -10t-86 16t-84 16q-23 0 -68 -13 t-69 -13q-51 0 -125 26q-129 47 -244 351q-102 266 -102 436z" />
<glyph unicode=")" horiz-adv-x="1347" d="M0 1460q0 20 12 43q61 113 160 113q182 0 430 -330l4 2q123 168 285 271q127 80 235 79q63 0 110.5 -42t47.5 -103q0 -115 -266 -174q-150 -35 -352 -45q23 -53 22 -111q0 -100 -70 -190q-55 -72 -55 -144q0 -45 21 -86h481l-49 -301h-96l-41 -442h-215q-25 55 -95 55 t-94 -55h-223l-43 442h-111l-41 301h414q-12 43 -12 86q0 109 76 207q47 61 47 127q0 35 -25 92l10 7q-567 44 -567 198z" />
<glyph unicode="*" horiz-adv-x="1941" d="M-4 608q0 66 100 162q82 80 146 107q61 285 200 458q-57 6 -96 49t-39 101q0 63 45 107t109 44q61 0 106 -43q29 -29 45 -108q137 80 312 80q172 0 311 -78v6q0 63 44 107.5t107 44.5t108.5 -44.5t45.5 -107.5q0 -57 -39 -100t-96 -50q152 -178 203 -466q57 -27 143 -119 q94 -102 94 -164q0 -63 -63 -64q-47 0 -146 54q-2 -256 -182 -365q297 -72 297 -137q0 -10 -8 -21q-43 -55 -150 -55q-164 0 -440 121q-104 -12 -229 -12q-127 0 -232 12q-274 -121 -438 -121q-106 0 -150 55q-8 10 -8 21q0 66 299 137q-184 111 -188 363q-84 -45 -135 -45 q-76 -1 -76 71zM500 1153q0 -39 26.5 -65.5t65.5 -26.5t66.5 26.5t27.5 65.5t-27.5 66.5t-66.5 27.5t-65.5 -27.5t-26.5 -66.5zM799 881h266v108h-266v-108zM1145 1153q0 -39 27.5 -65.5t66.5 -26.5t65.5 26.5t26.5 65.5t-26.5 66.5t-65.5 27.5t-66.5 -27.5t-27.5 -66.5z " />
<glyph unicode="+" horiz-adv-x="1722" d="M0 1384q0 137 358 207q238 47 463 47q223 0 461 -47q358 -70 358 -207q0 -72 -116 -131v-1159q0 -39 -28 -66.5t-66 -27.5h-1182q-39 0 -66.5 27.5t-27.5 66.5v1141q-154 67 -154 149zM397 977q0 -45 31 -77t76 -32t76.5 32t31.5 77t-31.5 75.5t-76.5 30.5 q-43 0 -75 -31.5t-32 -74.5zM569 651q57 -100 174 -143q51 -18 105 -21q188 10 244 164h-523zM1061 977q0 -45 30.5 -77t75.5 -32t76 32t31 77t-31 75.5t-76 30.5t-75.5 -30.5t-30.5 -75.5z" />
<glyph unicode="," horiz-adv-x="1529" d="M0 121q0 -121 119 -121q135 0 373 172q205 147 389 348q182 195 188 273q12 115 -140.5 259t-277.5 144q-23 0 -43 -6q-55 -20 -157 -150q0 -125 180 -256l-66 -88q-145 109 -198 232q-61 -90 -123 -193q14 -102 162 -211l-64 -88q-115 84 -168 176q-174 -329 -174 -491z M821 1241q0 362 49 397q14 -2 27 -26q29 -55 45 -205q147 176 193 178q6 -6 6 -35q0 -70 -45 -239q178 74 250 73q18 0 22 -4q18 -45 -160 -204q61 6 109 6q125 0 139 -35q-6 -16 -45 -33q-94 -41 -340 -74q-25 41 -119 121q-43 35 -131 80z" />
<glyph unicode="-" horiz-adv-x="1400" d="M227 813q213 0 344 180q115 160 115 383q0 -223 115 -383q131 -180 344 -180q-213 0 -344 -180q-115 -160 -115 -383q0 223 -115 383q-131 180 -344 180z" />
<glyph unicode="." horiz-adv-x="1576" d="M160 485q0 35 25.5 60.5t60.5 25.5q41 0 67 -32q137 -172 361 -181q215 -8 375 164q135 145 129 342q-6 199 -152 334q-106 98 -250 94q-141 -4 -241 -110q-72 -76 -68 -178q4 -104 78 -175q47 -45 119 -45q63 0 109 37t44 99q0 45 -35 77q-27 39 -26 64q0 37 24.5 61.5 t61.5 24.5q35 0 59 -25q25 -37 43 -69q45 -80 47 -129q4 -115 -78 -203q-102 -109 -249 -109q-137 0 -236 93q-127 119 -133 292q-6 174 113 301q150 160 362 166q215 6 375 -141q195 -182 205 -453q10 -272 -174 -467q-215 -227 -508 -217q-301 12 -488 246q-20 35 -20 53z " />
<glyph unicode="/" horiz-adv-x="1302" d="M0 522q0 217 152.5 369.5t369.5 152.5q23 0 49 -4q78 184 187 234l57 -121q-61 -39 -110 -143q154 -55 246.5 -189.5t92.5 -298.5q0 -217 -152.5 -369.5t-369.5 -152.5q-219 0 -370.5 151.5t-151.5 370.5zM524 1610l109 26l55 -223l-108 -27zM567 242q0 -27 19.5 -46.5 t46.5 -19.5q14 0 24 4q113 43 181 137q23 31 49 95q4 10 4 20q0 68 -68 68q-29 0 -63 -45q-37 -106 -150 -150q-43 -16 -43 -63zM809 1436l109 202l98 -53l-109 -203zM985 1270l205 106l51 -98l-203 -109z" />
<glyph unicode="0" horiz-adv-x="2369" d="M412 881q0 82 61 98q41 10 76 -25l2 2q45 10 63 -59q16 -66 -24 -80q-18 -68 -74 -67q-45 0 -76 45q-28 39 -28 86zM559 1032q0 33 43 53q27 12 51 7q29 -8 29 -35q0 -33 -29.5 -50.5t-62.5 -9.5q-31 6 -31 35zM631 762q-2 49 63 51q66 4 68 -45t-64 -51q-65 -4 -67 45z M647 903q-6 29 19.5 50.5t54.5 21.5q49 0 59 -39q8 -29 -17.5 -50.5t-55.5 -21.5q-50 0 -60 39zM1464 664q-2 43 20.5 81.5t63.5 40.5t68 -38h2q49 0 51 -70q2 -68 -41 -74q-25 -51 -69 -53q-41 -2 -68 37q-25 33 -27 76zM1642 805q-10 45 54 59q61 14 71 -30 q10 -45 -51 -60q-64 -14 -74 31zM1657 541q8 49 74 39t57 -60q-8 -49 -74 -39q-65 11 -57 60zM1702 676q-2 51 67 55q68 2 70 -49q2 -55 -65 -57q-70 -4 -72 51z" />
<glyph unicode="1" horiz-adv-x="1853" d="M23 715q0 35 24.5 59.5t58.5 24.5q35 0 59.5 -24.5t24.5 -59.5t-24.5 -59.5t-59.5 -24.5t-59 24.5t-24 59.5zM303 713l258 86l258 -86l-258 -88zM938 715q0 35 24.5 59.5t59.5 24.5t59.5 -24.5t24.5 -59.5t-24.5 -59.5t-59.5 -24.5t-59.5 24.5t-24.5 59.5zM1219 713 l258 86l258 -86l-258 -88z" />
<glyph unicode="2" horiz-adv-x="1933" d="M100 721q0 33 22.5 55.5t55.5 22.5t54.5 -22.5t21.5 -55.5t-21.5 -55.5t-54.5 -22.5t-55.5 22.5t-22.5 55.5zM416 618q-12 18 8 48q51 35 145 69q180 66 379 66q164 0 332 -101q117 -70 201 -69q145 0 211 94q27 39 26 84q0 59 -47 98t-106 33q-57 -6 -70 -63 q-14 -74 55 -76q33 0 33 -33q0 -23 -33 -35q-68 0 -101.5 44t-21.5 112q18 109 132 119q68 6 128 -29t85 -96q14 -37 14 -76q0 -63 -39 -121q-84 -123 -266 -123q-102 0 -236 80q-152 90 -297 90q-184 0 -354 -61q-53 -18 -131 -62q-29 -21 -47 8z" />
<glyph unicode="3" horiz-adv-x="1845" d="M16 758q0 12 11 16q193 141 428 139q209 -2 469 -133q129 74 161 97l23 -33q-55 -41 -141 -86q86 -45 141 -84l-23 -33q-72 47 -161 94q-262 -129 -469 -133q-154 -2 -308 68q-80 37 -122 73q-9 7 -9 15zM72 758q176 -117 383 -115q184 2 422 115q-236 113 -422 114 q-209 5 -383 -114zM240 758q0 45 45 45q47 0 47 -45t-47 -45q-45 0 -45 45zM1085 877zM1268 770q74 66 184 59q43 -2 123 -38.5t123 -36.5q27 0 57 8l8 -41q-35 -6 -65 -6q-49 0 -128 35.5t-120 37.5q-53 2 -156 -49z" />
<glyph unicode="4" horiz-adv-x="1994" d="M154 764q0 39 28.5 67.5t67.5 28.5q41 0 69.5 -27.5t28.5 -68.5t-28.5 -69.5t-69.5 -28.5t-68.5 28.5t-27.5 69.5zM737 844q0 39 28 66.5t66 27.5q23 0 43 -10v2q-4 39 22 69.5t65 34.5t69.5 -21.5t34.5 -64.5q2 -14 -2 -28q25 16 53 16q41 0 68.5 -27.5t27.5 -68.5 q0 -37 -26.5 -64.5t-63.5 -30.5q29 -29 29 -67q0 -39 -28.5 -67.5t-67.5 -28.5q-63 0 -88 59q-25 -55 -86 -55q-41 0 -69 27.5t-28 68.5q0 39 29 68q-76 16 -76 94zM1610 764q0 39 28.5 67.5t67.5 28.5q41 0 69.5 -27.5t28.5 -68.5t-28.5 -69.5t-69.5 -28.5t-68.5 28.5 t-27.5 69.5z" />
<glyph unicode="5" horiz-adv-x="1832" d="M236 737v119h118v-119h-118zM737 975q0 20 6 29q16 14 39 14q74 0 142 -150q72 152 141 152q20 0 35 -12q6 -8 6 -31q0 -117 -186 -424q-183 307 -183 422zM1487 737v119h119v-119h-119z" />
<glyph unicode="6" horiz-adv-x="2349" d="M197 780q164 72 264 72q117 0 264 -72q-137 -68 -264 -73q-125 3 -264 73zM1010 807q0 66 67 65q10 0 31 -6q-8 68 59 74q66 6 74 -59q0 -10 -2 -21q20 14 41 14q27 0 45 -21.5t18 -47.5q0 -63 -61 -68q18 -18 18 -47q0 -68 -65 -67q-47 0 -64 43q-18 -41 -61 -41 q-66 0 -66 67q0 29 21 49q-55 11 -55 66zM1634 776q160 72 264 72q117 0 265 -72q-139 -68 -265 -74q-127 4 -264 74z" />
<glyph unicode="7" horiz-adv-x="2283" d="M188 815q0 33 22.5 54.5t55.5 21.5q31 0 53.5 -22.5t22.5 -53.5t-22.5 -53.5t-53.5 -22.5q-33 0 -55.5 21.5t-22.5 54.5zM754 797q0 211 45 227q51 18 284 -164q20 66 58 66q35 0 53 -60q227 176 276 158q47 -16 48 -227q0 -209 -48 -217q-51 -10 -280 131 q-20 -45 -49 -45q-31 0 -51 51q-238 -147 -291 -137q-45 8 -45 217zM1942 815q0 31 22.5 53.5t52.5 22.5q33 0 55.5 -21.5t22.5 -54.5t-22.5 -54.5t-55.5 -21.5q-31 0 -53 22.5t-22 53.5z" />
<glyph unicode="8" horiz-adv-x="2306" d="M41 702q0 242 88 295q20 8 39 9q84 0 119 -150q78 82 200 145l25 -49q-113 -57 -184 -133q51 8 94 8q127 0 127 -75q-35 -154 -488 -289q-20 135 -20 239zM885 799q88 20 182 20q66 0 119 -14q72 -18 229 -100q143 -76 234 -91q49 -8 92 -8q129 0 184 70q29 37 -1 79 t-79 42q-14 0 -30 -4q-18 -18 -43 -60l-54 8q12 90 86 105q20 6 41 6q82 0 125 -68q20 -33 21 -71q0 -41 -23 -70q-70 -92 -227 -92q-51 0 -101 8q-90 14 -237 92q-154 80 -232 101q-47 12 -104 12q-49 0 -170 -19z" />
<glyph unicode="9" horiz-adv-x="2799" d="M12 776l115 115l115 -115l-115 -114zM395 733v62h844v-62h-844zM1409 776l115 115l114 -115l-114 -114zM1810 733v62h842v-62h-842z" />
<glyph unicode=":" horiz-adv-x="1880" d="M35 16q135 655 405 965q369 420 709 420q82 0 182 -35q-449 -348 -989 -952l98 -72q537 598 983 942q-8 18 -24 59q-14 10 -47 23q274 213 313 213q4 0 6 -2t4 -2l25 -96q14 0 2 -6l-2 6q-29 0 -277 -195q51 -147 52 -297q0 -416 -392 -663q-240 -152 -454 -207 q-115 -29 -324 -45q-174 -13 -270 -56z" />
<glyph unicode=";" horiz-adv-x="1880" d="M78 1489q-14 6 0 8h2l24 96q2 0 4.5 2t6.5 2q37 0 313 -215q-33 -10 -47 -22q-18 -39 -25 -57q446 -346 983 -945l99 74q-541 602 -989 950q98 35 182 35q342 0 708 -418q270 -309 406 -966q-102 45 -272 57q-217 16 -322 43q-213 55 -457 209q-389 246 -389 662 q0 152 51 299l-135 104q-119 86 -141 90z" />
<glyph unicode="&#x3c;" horiz-adv-x="1341" d="M0 883q0 -162 82 -367q88 -223 223 -360q158 -162 338 -156q256 10 457 332q178 285 178 540q0 86 -29 132q-82 127 -233 178q-129 43 -363 43q-545 0 -637 -234q-16 -40 -16 -108zM92 1540q6 4 19 4q78 0 278 -104q4 176 51 198q18 -2 45 -20q66 -43 168 -160 q166 166 242 174q33 -6 33 -71q0 -49 -21 -127q201 104 287 104q12 0 16 -2t4 -6q0 -51 -337 -244q-66 12 -246 14q-82 0 -221 -18q-338 215 -318 258zM197 936q0 55 65 59q66 -4 66 -59q0 -51 -66 -141q-65 90 -65 141zM373 578q0 43 53 57q78 8 78 -66q0 -49 -41 -133 q-90 87 -90 142zM584 944q0 55 65 60q66 -4 66 -60q0 -51 -66 -141q-65 90 -65 141zM786 567q0 68 74 62q57 -10 58 -58q0 -53 -84 -141q-48 86 -48 137zM952 936q0 55 66 59q66 -4 65 -59q0 -53 -65 -141q-66 88 -66 141z" />
<glyph unicode="=" horiz-adv-x="1366" d="M100 477q0 504 549 1168q504 -662 504 -1149q0 -137 -35 -209q-68 -137 -203 -211q-127 -70 -286 -70q-188 0 -320 84q-141 90 -194 260q-15 45 -15 127zM274 743q0 -37 27 -63.5t64 -26.5t63.5 27t26.5 63q0 37 -27 64t-63 27q-37 0 -64 -27t-27 -64zM457 526 q14 -141 164 -149q150 10 161 149h-325zM786 743q0 -37 26 -63.5t62 -26.5q37 0 64 27t27 63q0 39 -27 65t-64 26t-62.5 -27t-25.5 -64z" />
<glyph unicode="&#x3e;" horiz-adv-x="1576" d="M217 877q10 270 207 454q158 147 373 139t362 -163q121 -129 115 -303q-4 -174 -133 -293q-98 -92 -236 -93q-150 0 -252 109q-80 86 -75 205q2 72 90 196q25 25 57 25q37 0 62.5 -24.5t25.5 -61.5q0 -25 -30.5 -60.5t-32.5 -80.5q-2 -47 30 -82q49 -53 125 -53 q66 0 117 47q76 70 78 172q4 104 -66 178q-98 104 -243 110q-143 4 -250 -94q-143 -135 -152 -334q-6 -195 129 -342q160 -172 375 -163q223 8 360 180q27 33 68 33q35 0 60.5 -26t25.5 -60q0 -18 -18 -54q-188 -233 -490 -245q-293 -10 -506 217q-184 199 -176 467z" />
<glyph unicode="?" horiz-adv-x="1370" d="M0 657q0 -279 203 -473l-72 -84l119 -100l78 92q152 -88 323 -88q201 0 367 113l72 -84l116 102l-71 84q170 186 170 438q0 270 -191.5 461t-462.5 191q-268 0 -459.5 -191t-191.5 -461zM172 1348h913q25 199 -385 233q6 8 7 16q0 41 -74 41t-74 -41q0 -8 6 -16 q-405 -36 -393 -233zM195 788l73 138l379 -205l418 217l72 -137l-492 -256z" />
<glyph unicode="@" horiz-adv-x="1988" d="M20 256v328q0 57 40 98t98 41q18 0 39 -6q25 6 47 6h282v471q0 186 130 315t317 129q186 0 315 -129t129 -315v-350h221v141q0 57 41 97t99 40q57 0 97 -40t40 -97v-330q0 -57 -40 -97t-97 -40q-18 0 -39 6q-25 -6 -47 -6h-275v-518h-891v401h-229v-145q0 -57 -41 -97 t-98 -40t-97.5 40t-40.5 97zM627 1122q0 -37 25.5 -62.5t62.5 -25.5t62.5 25.5t25.5 62.5t-25.5 62.5t-62.5 25.5t-62.5 -25.5t-25.5 -62.5zM868 801h248v106h-248v-106zM1106 1245q0 -37 25.5 -62.5t62.5 -25.5t62.5 25.5t25.5 62.5t-25.5 62.5t-62.5 25.5t-62.5 -25.5 t-25.5 -62.5z" />
<glyph unicode="A" d="M49 811q0 285 198.5 483.5t483.5 198.5t483.5 -198.5t198.5 -483.5q0 -8 -2 -43q193 -41 279 -152q31 -41 108 -186q72 -137 152 -221q-195 160 -371 227q-80 31 -137 35q-13 1 -30 1q-40 0 -95 -7q-92 -156 -248 -245t-338 -89q-283 0 -482.5 198.5t-199.5 481.5z M225 1018q0 -47 34 -80t81 -33t81 33t34 80q0 49 -33 82t-82 33t-82 -33t-33 -82zM412 682q31 -166 262 -180q211 12 256 180h-518zM924 963q0 -47 32.5 -81t79.5 -34q49 0 82 32.5t33 82.5q0 49 -33 81.5t-82 32.5q-47 0 -79.5 -33.5t-32.5 -80.5z" />
<glyph unicode="B" horiz-adv-x="1619" d="M0 584q0 -242 166 -413t401 -171q233 0 400.5 171t167.5 413q0 186 -107 338q244 186 381 344q135 155 135 250q0 57 -47 94q-35 29 -78 28q-207 0 -536 -569q-143 98 -316 98q-236 0 -401.5 -170.5t-165.5 -412.5zM266 748q0 96 99 176q51 43 120 43q104 0 208 -91.5 t145 -234.5q18 -59 18 -119q0 -131 -75.5 -221t-184.5 -90q-45 0 -88 16q-102 37 -137 103q-20 39 -24.5 125t-27.5 127q-53 98 -53 166zM459 600q0 -59 39 -101t92 -42q55 0 94 42t39 101q0 57 -39 99t-94 42q-53 0 -92 -42t-39 -99zM1331 1491q0 29 19.5 49.5t46.5 20.5 t46 -20.5t19 -49.5t-19.5 -50.5t-45.5 -21.5q-27 0 -46.5 21.5t-19.5 50.5z" />
<glyph unicode="C" horiz-adv-x="1546" d="M4 1468q0 -37 23 -65l379 -459q31 -37 77 -37q16 0 33 4l166 -200l-66 -54q-68 -55 -67 -133q0 -31 14 -55l228 -391q51 -88 149 -88q63 0 117 43l323 264q66 55 66 135q0 78 -62 131l-348 293q-31 27 -80 27q-63 0 -118 -45l-64 -52l-166 203q12 25 13 53q0 37 -23 64 l-379 459q-29 37 -80 37q-47 0 -86 -33q-49 -42 -49 -101zM88 1460q0 53 51 53t51 -53q0 -51 -51 -51t-51 51zM653 500q-8 13 -8 24q0 19 21 37q16 13 29 14q16 0 28 -18l227 -317q12 -18 13 -43q0 -57 -50 -58q-31 0 -49 29zM786 612q-10 13 -10 25q0 18 21 35q16 14 30 14 q15 0 29 -16l256 -293q16 -18 16 -43q0 -53 -51 -53q-31 0 -51 24zM928 725q-13 13 -13 26q0 16 19 31q16 14 32 14.5t31 -14.5l283 -268q20 -20 20 -45q0 -51 -55 -51q-31 0 -51 24z" />
<glyph unicode="D" horiz-adv-x="2021" d="M-29 727q0 115 97 115q78 0 137 -86q49 14 108 20q51 129 174 234h-10q18 106 64 319q70 293 186 293q125 0 283 -412q49 4 92 4q84 0 164 -12q203 436 336 436q111 0 165 -311q31 -174 39 -405q119 -145 119 -316q0 -283 -280 -456q-242 -150 -543 -150q-233 0 -432 92 q119 41 254 119l-70 127q-256 -141 -416 -150q-346 61 -395 328q-6 31 -4 57q-68 66 -68 154zM512 840q0 -45 31.5 -75t77.5 -30q45 0 75.5 30t30.5 75t-30.5 75.5t-75.5 30.5t-77 -30.5t-32 -75.5zM1174 766q0 -45 30.5 -76t75.5 -31t77 31t32 76t-32 74.5t-77 29.5 t-75.5 -29.5t-30.5 -74.5z" />
<glyph unicode="E" horiz-adv-x="1591" d="M-2 733q10 -303 227 -514t520 -211q311 0 530.5 219t219.5 529q0 238 -135 429t-352 271q109 -158 108 -350q0 -299 -235 -488l-88 111l-113 -90l78 -96q-61 -29 -125 -43q-2 -51 20 -82q41 -57 164 -58l-2 -108q-215 2 -272 145q-16 41 -19 88q-35 0 -28 0 q-310 0 -498 248zM991 549q0 41 28 68.5t68 27.5q39 0 67 -27.5t28 -68.5q0 -39 -28 -66.5t-67 -27.5q-41 0 -68.5 27.5t-27.5 66.5z" />
<glyph unicode="F" horiz-adv-x="2007" d="M77 888q69 -54 187 -54q227 0 228 190q0 18 -9 109q55 27 166 51v-279q-139 -35 -217 -162l-139 -227q-94 -156 -94 -301q0 -207 180 -207h1126q180 0 181 207q0 145 -95 301l-139 227q-80 131 -221 164v267q86 -25 158 -62q-6 -45 -7 -78q-1 -11 -1 -21q0 -77 54 -125 q60 -54 179 -54q121 0 197.5 54t80.5 144q0 6 1 12q0 127 -167 240q-137 92 -270 139q-215 72 -514 72q-535 0 -797 -233q-144 -126 -143 -220q0 -95 75 -154zM516 582q0 37 24.5 63.5t61.5 26.5q35 0 59.5 -27t24.5 -63q0 -37 -24.5 -62.5t-59.5 -25.5q-37 0 -61.5 25.5 t-24.5 62.5zM719 416l102 26q20 -86 101 -86q84 0 120 88l97 -41q-16 -41 -52 -79q-70 -76 -165 -76q-86 0 -144 61q-45 48 -59 107zM815 913v297q68 6 127 7q57 0 121 -9v-295h-248zM1184 582q0 37 24.5 63.5t59.5 26.5t60.5 -27t25.5 -63q0 -37 -25.5 -62.5t-60.5 -25.5 t-59.5 25.5t-24.5 62.5z" />
<glyph unicode="G" horiz-adv-x="1716" d="M8 360q0 -61 33 -104t80 -43h155q-47 -35 -47 -90v-2q0 -47 34 -80t81 -33h2q47 0 81 33t34 80v2q0 55 -45 90h825q-45 -35 -45 -90v-2q0 -47 33 -80t80 -33h4q47 0 79.5 33t32.5 80v2q0 55 -45 90h136q47 0 79.5 43t32.5 104v50h-1620v-50zM8 508h1620v489 q0 61 -32.5 103.5t-79.5 42.5h-177l160 160l-325 323l-326 -323l160 -160h-441v78h-250v-78h-196q-47 0 -80 -42t-33 -104v-489zM133 717v207q0 57 43 57h123q43 0 43 -57v-207q0 -57 -43 -58h-123q-43 1 -43 58zM874 672v323h228v-323h-228zM1014 1307l162 151l149 -153 l-151 -158zM1235 672v323h227v-323h-227z" />
<glyph unicode="H" horiz-adv-x="1718" d="M0 358q0 -61 33 -104t80 -43h155q-45 -33 -45 -90v-2q0 -47 34 -80t81 -33h4q47 0 80 33t33 80v2q0 57 -45 90h833q-47 -33 -47 -90v-2q0 -47 34 -80t81 -33h4q47 0 81 33t34 80v2q0 57 -48 90h136q49 0 81.5 43t32.5 104v50h-1632v-50zM0 506h1632v489q0 61 -32.5 104.5 t-81.5 43.5h-318v76h-758v-76h-329q-47 0 -80 -43t-33 -105v-489zM156 670v323h231v-323h-231zM520 670v323h230v-323h-230zM883 670v323h229v-323h-229zM1245 670v323h230v-323h-230z" />
<glyph unicode="I" horiz-adv-x="2033" d="M-4 365q0 -55 38 -93.5t91 -38.5h151q12 -98 87 -163.5t176 -65.5q100 0 174.5 65.5t87.5 163.5h434q14 -98 89 -163.5t175 -65.5t175 65.5t87 163.5h49q53 0 92.5 39t36.5 93l-8 327q-2 76 -65 111l-78 414q-23 88 -86 137q-47 37 -100 43h-5l-884 -2q-98 -12 -152 -78 q-41 -49 -45 -113l-82 -346l-309 -22q-53 -4 -91 -40t-38 -89v-342zM426 270q0 47 34 81t81 34t80.5 -34t33.5 -81t-33.5 -80.5t-80.5 -33.5t-81 33.5t-34 80.5zM614 831l84 359q0 18 33 24h318v-383h-435zM1231 831v383h352q20 -10 27 -40l65 -347zM1380 266q0 47 34 81 t81 34t81 -34t34 -81t-34 -80.5t-81 -33.5t-81 33.5t-34 80.5z" />
<glyph unicode="J" horiz-adv-x="1794" d="M246 184l192 -49q37 -129 140 -129q61 0 104 58.5t43 140.5q0 84 -43 142.5t-104 58.5q-53 0 -93.5 -44.5t-52.5 -111.5zM1001 184l193 -49q37 -129 139 -129q61 0 104.5 58.5t43.5 140.5q0 84 -43 142.5t-105 58.5q-53 0 -93 -44.5t-50 -111.5z" />
<glyph unicode="K" horiz-adv-x="2017" d="M233 147l3 -133q84 0 153 45q92 59 103 172q1 13 0 25q0 94 -56 158q-72 80 -186 84l-4 -133q59 -2 88 -36q25 -30 25 -74q0 -6 -1 -13q-8 -91 -125 -95zM856 145l2 -135q84 2 154 45q92 59 102 172q1 13 1 25q0 94 -56 160q-72 78 -185 84l-6 -136q59 -2 90 -38 q23 -25 24 -70q0 -7 -1 -14q-8 -91 -125 -93zM1481 145l2 -133q84 0 153 45q92 57 101 170q1 15 1 30q0 93 -57 155q-70 80 -184 84l-4 -134h-2q59 -4 92 -40q21 -25 21 -68v-14q-6 -93 -123 -95z" />
<glyph unicode="L" horiz-adv-x="1822" d="M6 758q0 -25 51 -25q41 0 140 37q129 -80 409 -195q-135 -47 -354 -143q-98 -55 -98 -90q0 -41 84 -59q57 -14 114 -15q90 0 215 23q221 39 488 133q252 -59 413 -59q164 0 201 57q25 39 25 76q0 72 -86 129q-76 -72 -217 -72q-31 0 -64 2q8 49 16 123q35 -4 66 -4 q96 0 145 43q-59 86 -114 106q-39 16 -226 43q-115 213 -147 265q-92 147 -147 155h-3q-96 0 -96 -190q0 -82 19 -199q-240 41 -439 70q-57 141 -127 295l-14 4q-12 2 -27 2q-25 0 -61 -6v-22q0 -119 21 -269q-35 -33 -35 -111q-152 -65 -152 -104zM748 694q0 31 21.5 52.5 t53.5 21.5q74 0 74 -74q0 -31 -21.5 -52t-52.5 -21q-33 0 -54 21t-21 52zM1020 637q0 31 21.5 53.5t52.5 22.5q72 0 71 -74q0 -74 -73 -74h-6q-27 0 -46 20q-20 21 -20 52z" />
<glyph unicode="M" horiz-adv-x="1720" d="M74 729v148h252v-148h-252zM238 1286l104 105l178 -181l-104 -104zM246 324l178 180l104 -105l-178 -180zM512 809q0 131 90 222t221 91t222.5 -91t91.5 -222t-91.5 -222t-222.5 -91q-129 0 -220 92t-91 221zM743 1309v254h148v-254h-148zM756 55v254h149v-254h-149z M1120 1221l178 178l105 -105l-178 -180zM1128 408l105 104l178 -178l-104 -107zM1323 741v150h252v-150h-252z" />
<glyph unicode="N" horiz-adv-x="1841" d="M0 881q92 274 326.5 443t525.5 169q72 0 141 -10l27 106q12 51 55 51q74 0 74 -57q0 -10 -2 -22l-27 -109q283 -88 458 -324.5t175 -533.5q0 -57 -6 -115q-41 94 -125 149.5t-186 55.5q-162 0 -265 -127q-39 178 -204 244l-142 -586q-4 -98 -64.5 -161.5t-156.5 -63.5 q-35 0 -78 10q-182 43 -182 248q0 33 6 61q12 53 59 53q9 0 19 -2q43 -8 51 -77q-4 -18 -4 -39q0 -98 80 -117q27 -7 50 -7q88 0 91 105l142 600q-170 0 -273 -135q-20 123 -114.5 202t-219.5 79q-133 0 -231 -90z" />
<glyph unicode="O" horiz-adv-x="1593" d="M0 621l217 -160q-33 -70 -33 -156q2 -207 244 -305h641q254 109 254 332q2 68 -31 129l226 160l-70 100l-231 -162q-14 14 -58 45q111 92 119 250q0 141 -94 250l100 420l-346 114l-242 -354q-213 -12 -356 -134t-139 -300q4 -49 18 -92q37 -104 121 -170q-20 -8 -47 -31 l-219 162zM367 973q0 37 26.5 63.5t63.5 26.5q39 0 65.5 -26.5t26.5 -63.5t-26.5 -63.5t-65.5 -26.5q-37 0 -63.5 26.5t-26.5 63.5zM590 655v123h293v-123h-293zM883 963q0 37 26.5 63.5t63.5 26.5q39 0 65.5 -27t26.5 -63q0 -37 -26.5 -64t-65.5 -27q-37 0 -63.5 27 t-26.5 64z" />
<glyph unicode="P" horiz-adv-x="2463" d="M4 459l6 180l287 -12v12q0 154 98 291q-33 254 -33 442q0 270 87 270q137 0 507 -391q119 23 236 23q109 0 223 -21q371 389 506 389q86 0 86 -270q0 -180 -31 -426q111 -143 111 -307v-12l256 12l8 -180l-307 -13q-6 -18 -21 -40l310 -105l-58 -170l-370 125 q-270 -252 -713 -252q-451 0 -721 260l-393 -133l-55 170l333 113q-12 23 -16 30zM653 690q0 -53 37 -90t90 -37t90 37t37 90t-36.5 90t-90.5 37q-53 0 -90 -37t-37 -90zM1477 690q0 -53 36.5 -90t90.5 -37q53 0 90 37t37 90t-37 90t-90 37t-90 -37t-37 -90z" />
<glyph unicode="Q" horiz-adv-x="1597" d="M2 590q0 -135 170 -215q74 -27 162 -27q168 0 295 111q1 -12 1 -23q0 -90 -61 -141q-100 -70 -176 -70q-23 0 -41 6q49 -82 201 -81q80 0 166 20q248 80 248 244q0 31 -11 63q115 -123 281 -123q59 0 109 15q190 78 190 219q0 47 -25 96q-29 -96 -211 -111h-7 q-149 0 -191 252h231v148h-231v207q0 145 -102.5 248.5t-245.5 103.5t-244.5 -103.5t-101.5 -248.5v-478q-25 -115 -150 -143q-14 -2 -35 -2q-127 0 -205 115q-16 -41 -16 -82zM549 997q0 33 23.5 56.5t56.5 23.5q35 0 58.5 -23.5t23.5 -56.5q0 -35 -23.5 -58.5t-58.5 -23.5 q-33 0 -56.5 23.5t-23.5 58.5zM852 1081q0 35 23.5 58.5t56.5 23.5q35 0 58.5 -23.5t23.5 -58.5q0 -33 -23.5 -56.5t-58.5 -23.5q-33 0 -56.5 23.5t-23.5 56.5z" />
<glyph unicode="R" horiz-adv-x="1564" d="M59 670q0 326 68 374q14 10 37 11q125 0 493 -203q43 61 113 61q68 0 111 -61q369 203 493 203q23 0 37 -11q68 -49 68 -366q0 -246 -45 -297q-12 -14 -48 -14q-127 0 -489 178q-39 -94 -127 -94q-90 0 -129 94q-362 -178 -489 -178q-35 0 -48 14q-45 53 -45 289z M336 719q6 -78 88 -78q70 0 182 61q-127 86 -198 86q-68 1 -72 -69zM932 702q113 -61 182 -61q82 0 90 78q-6 70 -74 69q-71 0 -198 -86z" />
<glyph unicode="S" horiz-adv-x="1927" d="M41 1051q0 33 18 39q3 1 6 0q41 0 162 -119q131 -129 152 -131q1 0 3 -1q23 0 142 48q178 70 281 100q182 53 323 53q197 0 416 -63q299 -86 299 -234q0 -150 -313 -233q-227 -61 -430 -61q-178 0 -346 51q-92 29 -242 98q-109 51 -133 51q-33 0 -143.5 -120.5 t-149.5 -120.5q-31 0 -31 41t37 142t37 128q0 41 -44 159t-44 173zM1311 762q0 -41 28.5 -69.5t69.5 -28.5t68.5 28.5t27.5 69.5t-27.5 68.5t-68.5 27.5t-69.5 -27.5t-28.5 -68.5z" />
<glyph unicode="T" horiz-adv-x="1855" d="M0 1446l68 -107l204 129l39 -129q-115 -49 -184.5 -146t-69.5 -214q0 -166 131 -282.5t318 -116.5q59 0 121 16q6 -37 18 -74q-139 -113 -268 -116q-5 0 -9 -1q-126 0 -233 111l-90 -90q144 -146 321 -146q7 0 15 1q162 4 326 129q12 -12 28 -25l-141 -240l108 -63 l152 258q23 -2 43 -2q106 0 154 74q33 -41 82 -82v-301h124v213q61 -33 123 -45l154 -197l98 78l-86 110q133 12 207 91q66 70 66 167q0 119 -111 197q-106 77 -273 77q-20 0 -40 -1q-180 -8 -322 -182q-12 76 -77.5 134t-141.5 58q98 111 98 250q0 123 -74.5 222 t-197.5 145l41 137l188 -119l68 106l-258 162q-16 10 -34 10q-11 0 -21 -4q-29 -10 -39 -41l-68 -223q-29 4 -51 4q-35 0 -74 -6l-63 213q-10 29 -39 41q-29 10 -56 -6zM203 1094q0 39 26.5 65.5t63.5 26.5q39 0 65.5 -26.5t26.5 -65.5q0 -37 -26.5 -63.5t-65.5 -26.5 q-37 0 -63.5 26.5t-26.5 63.5zM338 872h229q-18 -90 -118 -96q-27 2 -50 12q-49 25 -61 84zM616 1077q0 39 27 65.5t64 26.5q39 0 65.5 -26.5t26.5 -65.5q0 -37 -27 -63.5t-65 -26.5q-37 0 -64 26.5t-27 63.5z" />
<glyph unicode="U" horiz-adv-x="1865" d="M25 1034q25 104 333 125q49 195 238 254q67 22 139 22q21 0 41 -1q121 -8 201 -119q72 -102 72 -228q0 -164 -125 -247l659 -52l-6 11q25 -4 49 -4q106 0 195 88q-31 -162 -84 -224v-22q0 -291 -209 -438q-190 -133 -518 -133q-240 0 -445 94q-262 119 -262 329 q0 168 205 310q-2 14 -109 123q-39 -2 -73 -2q-278 -1 -301 114zM614 1133q0 -39 27 -67t68 -28q39 0 66.5 28t27.5 67t-27.5 67.5t-66.5 28.5q-41 0 -68 -28.5t-27 -67.5z" />
<glyph unicode="V" horiz-adv-x="1615" d="M276 1040q92 -164 283 -192q-94 -59 -94 -170q0 -43 14 -92q37 -129 150 -197q102 -63 241 -63q61 0 123 14l-133 -186l-153 -2v-117h213l202 287l-57 38q41 14 68 31l34 23l160 -252l-80 -80l82 -82l148 147l-217 338q82 49 169 156t111 186l-209 -67q-291 109 -483 153 q162 113 162 306q0 147 -105 256q92 14 141.5 54t51.5 103l-115 6q0 -12 -12 -20q-44 -36 -175 -36q-40 0 -87 3q-45 10 -88 10h-4h-3q-160 -2 -272.5 -111.5t-112.5 -264.5q0 -2 2 -21q-232 -69 -232 -94.5t277 -63.5zM436 1253q0 39 26.5 66t65.5 27q37 0 65 -27t28 -66 t-28 -65.5t-65 -26.5q-39 0 -65.5 26.5t-26.5 65.5z" />
<glyph unicode="W" horiz-adv-x="1650" d="M186 1331q0 53 23 74q57 37 135 37q199 0 473 -461q299 467 490 467q70 0 116 -33q23 -20 23 -78q0 -170 -160 -506q-184 -383 -481 -749q-285 365 -463 749q-156 332 -156 500z" />
<glyph unicode="X" horiz-adv-x="1097" d="M0 575q0 -20 11.5 -42.5t54.5 -22.5q94 0 282 131q-37 -59 -37 -121q0 -68 41 -121q-207 -176 -207 -307q0 -51 29 -82q12 -10 31 -10q121 0 305 330q184 -330 319 -330q23 0 37 10q25 23 25 66q0 121 -209 305q51 57 51 135q0 59 -26 113q172 -111 266 -111q45 0 61 23 q10 20 10 39q0 113 -327 192q115 37 184 105q76 76 76 172q0 121 -117 229q68 14 111 62.5t43 116.5q0 73 -57 125q-58 54 -140 56q-82 0 -141.5 -52t-59.5 -128q0 -27 11 -55q-47 10 -88 10q-39 0 -82 -6q4 17 4 36q0 72 -55 125q-57 54 -142 56q-82 0 -141.5 -53 t-59.5 -133q0 -126 134 -170q-90 -92 -91 -197q-2 -94 70 -176q66 -74 174 -115q-350 -70 -350 -205zM254 1112q0 29 21 50q20 20 46 20h5q31 0 51 -21.5t20 -50.5q0 -31 -21.5 -51.5t-51.5 -20.5q-29 2 -49.5 22.5t-20.5 51.5zM684 1100q0 31 21.5 51t50.5 20 q31 -2 51 -22.5t20 -50.5q0 -29 -21 -50q-20 -20 -47 -20h-5q-29 0 -49.5 21.5t-20.5 50.5z" />
<glyph unicode="Y" horiz-adv-x="1464" d="M0 377q0 -14 4 -27q31 -63 180 -63q121 0 299 45q-221 -176 -221 -273q0 -39 31 -53q18 -8 43 -8q172 0 315 309q102 86 113 240v-32q0 -259 96 -259q16 0 37 10q51 27 51 115q0 113 -78 303q16 -1 32 -1q103 0 183 36q102 45 134 135q14 39 14 82q0 84 -47 174 q13 -2 26 -2q51 0 96 26q56 32 76 91q10 27 11 57q0 57 -36 107.5t-97 72.5q-35 12 -72 13q-76 0 -130 -49.5t-54 -122.5q-72 45 -156 57q25 41 24 86q0 57 -36.5 107.5t-98.5 72.5q-35 12 -71 12q-76 0 -130.5 -49t-54.5 -125q0 -90 78 -147q-162 -84 -162 -236 q0 -143 140 -264q-145 35 -234 35q-104 0 -104 -54q0 -7 2 -14q47 -123 258 -123q28 0 59 3q-162 -53 -162 -215q-121 31 -200 30q-158 0 -158 -102zM559 1126q0 31 21.5 51.5t50.5 20.5t50 -20.5t21 -51.5q0 -29 -21.5 -49t-49.5 -20q-29 0 -50.5 20t-21.5 49zM958 977 q0 29 20.5 50.5t49.5 21.5q31 0 51.5 -20.5t20.5 -51.5q0 -29 -20.5 -49.5t-51.5 -20.5q-29 0 -49.5 20.5t-20.5 49.5z" />
<glyph unicode="Z" horiz-adv-x="1509" d="M0 596q0 -29 12 -57q23 -51 70 -52q72 0 113 64q301 -541 1228 -551q-276 94 -299 299q0 94 99 266q25 -53 49 -67q45 -31 84 -31q45 0 67 49q14 29 15 57q0 92 -123 195q18 66 20 131q0 13 1 26q0 241 -111 433q-152 266 -457 280q-16 1 -32 1q-294 0 -478 -218 q-172 -201 -172 -465q0 -86 20 -178q-106 -96 -106 -182zM317 1280q0 41 30 70.5t71 29.5t69.5 -29.5t28.5 -70.5t-28.5 -69.5t-69.5 -28.5t-71 28.5t-30 69.5zM498 936h323q0 -129 -172 -139q-43 2 -74 18q-73 35 -77 121zM891 1159q0 41 29.5 71t70.5 30t70 -30t29 -71 t-29 -69.5t-70 -28.5t-70.5 28.5t-29.5 69.5z" />
<glyph unicode="[" horiz-adv-x="1656" d="M0 0q78 350 78 608q0 297 63 516q94 330 314 355q18 2 39 2q244 0 272 -342q244 330 545 446q158 61 268 53l-10 -116q-90 6 -226 -49q-256 -104 -466 -383q90 16 170 16q238 0 339 -133q57 -76 58 -172q0 -57 -21 -121q-61 -186 -241 -301q-406 -256 -1182 -379z M244 279l82 -86q102 100 354 585q90 174 197 312q-57 -10 -109 -23q2 27 -2 72q-102 -137 -191 -308q-237 -458 -331 -552z" />
<glyph unicode="\" horiz-adv-x="1587" d="M16 76q0 -37 17.5 -54.5t50.5 -17.5q29 0 63 14l39 13q-23 41 -51 69q-41 41 -94 72l-14 -41q-11 -30 -11 -55zM72 264q72 -39 129 -96q45 -45 75 -109l273 86l-10 164l-181 39l-34 170l-168 -6zM215 608l125 6l891 889q-29 10 -96 23zM412 553l26 -125l129 -29l914 914 l-160 147zM631 330l8 -113l905 905q6 37 -16 103z" />
<glyph unicode="]" horiz-adv-x="1687" d="M0 229q0 -12 10 -12q25 0 175.5 150.5t195.5 150.5q10 0 16 -6q10 -12 -141 -180q-162 -176 -162 -217q0 -16 15 -17q37 0 204.5 151.5t190.5 151.5q10 0 10 -14q0 -39 -147.5 -195.5t-147.5 -183.5q0 -8 10 -8q43 0 170 82q145 92 244 199q125 135 125 249q0 63 -39 117 q293 248 512 463q365 360 365 479q0 49 -45 49q-186 0 -912 -913q-53 31 -112 31q-117 0 -254 -119q-109 -96 -201 -238q-82 -127 -82 -170z" />
<glyph unicode="^" horiz-adv-x="1697" d="M0 1298q0 -109 59.5 -195.5t153.5 -123.5q-158 -166 -158 -375q0 -250 214 -427t517 -177t517.5 177t214.5 427q0 201 -148 363q106 29 177 121t71 210q0 141 -96.5 240.5t-231.5 99.5t-231 -99t-96 -241q0 -57 18 -112q-98 23 -195 22q-74 0 -147 -12q14 49 14 102 q0 141 -95 240.5t-230 99.5t-231.5 -99.5t-96.5 -240.5zM309 735q0 43 31 73t72 30q43 0 72.5 -30t29.5 -73q0 -41 -29.5 -71.5t-72.5 -30.5q-41 0 -72 30.5t-31 71.5zM502 483l123 41q37 -104 159 -104q127 0 164 94h-2l123 -43q-16 -47 -61 -94q-86 -88 -224 -88 q-115 0 -198 73q-64 53 -84 121zM1053 735q0 43 29.5 73t72.5 30q41 0 70.5 -30t29.5 -73q0 -41 -29.5 -71.5t-70.5 -30.5q-43 0 -72.5 30.5t-29.5 71.5z" />
<glyph unicode="_" horiz-adv-x="1202" d="M0 1380q0 -205 121 -495l45 -97q-162 -147 -162 -321q0 -195 167 -331t404 -136q236 0 403 136t167 331q0 205 -195 352l29 55q121 293 121 498q0 100 -37 168q-45 90 -137 90q-117 0 -205 -204.5t-96 -493.5q-29 2 -50 2q-49 0 -102 -8q-4 295 -93 503.5t-208 208.5 q-90 0 -137 -88q-35 -70 -35 -170zM166 530q0 39 27.5 68t66.5 29t67.5 -29t28.5 -68t-28.5 -66.5t-67.5 -27.5t-66.5 27.5t-27.5 66.5zM473 201v110h203v-110h-203zM776 530q0 39 27.5 68t66.5 29t67 -29t28 -68t-28 -66.5t-67 -27.5t-66.5 27.5t-27.5 66.5z" />
<glyph unicode="`" horiz-adv-x="1855" d="M0 909l539 -323l362 592l365 -592l499 305l-123 -629h-1495zM84 1343l119 109l215 -238l-121 -106zM174 0v135h1442v-135h-1442zM799 1638h162v-319h-160zM1407 1196l205 244l123 -103l-205 -245z" />
<glyph unicode="a" d="M33 221q82 90 151 221q84 158 107 187q86 111 280 151q-2 35 -2 43q0 285 199 483.5t483 198.5q285 0 482.5 -198.5t197.5 -483.5q0 -283 -198.5 -481.5t-481.5 -198.5q-182 0 -337.5 89.5t-249.5 244.5q-54 7 -94 7q-16 0 -29 -1q-57 -4 -138 -34q-175 -68 -370 -228z M831 975q0 -47 33 -81t80 -34t81 34t34 81t-34 81t-81 34t-80 -34t-33 -81zM1053 694q43 -168 256 -180q231 14 262 180h-518zM1528 1030q0 -47 33.5 -79.5t80.5 -32.5t80 32.5t33 79.5t-32.5 81t-80.5 34q-47 0 -80.5 -34t-33.5 -81z" />
<glyph unicode="b" horiz-adv-x="1619" d="M59 1610q37 29 80 28q207 0 537 -569q143 98 315 98q233 0 400.5 -171t167.5 -412q0 -242 -167 -413t-401 -171q-236 0 -401.5 171t-165.5 413q0 186 104 338q-244 186 -378 344q-136 155 -137 252q0 56 46 92zM94 1491q0 -29 19.5 -50.5t46.5 -21.5q29 0 48 21.5 t19 50.5t-19.5 49.5t-47.5 20.5q-27 0 -46.5 -20.5t-19.5 -49.5zM702 522q0 -131 75 -221t186 -90q43 0 88 16q102 37 135 103q20 39 24 125t27 127q55 98 55 166q0 96 -98 176q-51 43 -121 43q-106 0 -208.5 -91.5t-145.5 -234.5q-17 -60 -17 -119zM836 600q0 57 37.5 99 t93.5 42q55 0 94 -42t39 -99q0 -59 -39 -101t-94 -42t-93 42t-38 101z" />
<glyph unicode="c" horiz-adv-x="1546" d="M6 432q0 78 64 131l348 293q31 27 78 27q66 0 118 -45l64 -52l166 203q-12 25 -13 53q0 37 23 64l379 459q29 37 80 37q47 0 86 -33q49 -41 49 -101q0 -37 -23 -65l-378 -459q-29 -37 -77 -37q-16 0 -34 4l-166 -200l66 -54q68 -55 67 -133q0 -31 -14 -55l-227 -391 q-51 -88 -150 -88q-63 0 -115 43l-323 264q-68 55 -68 135zM152 469q0 -51 55 -51q31 0 51 24l266 283q13 13 13 26q0 16 -19 31q-16 14 -31.5 14.5t-29.5 -14.5l-285 -268q-20 -20 -20 -45zM324 334q0 -53 53 -53q31 0 49 24l240 307q10 13 10 25q0 18 -21 35 q-16 14 -30 14q-15 0 -29 -16l-254 -293q-18 -18 -18 -43zM489 197q0 -57 52 -58q29 0 49 29l209 332q9 13 9 25q0 19 -22 36q-16 13 -29 14q-16 0 -28 -18l-225 -317q-15 -18 -15 -43zM1262 1460q0 -51 51 -51t51 51q0 53 -51 53t-51 -53z" />
<glyph unicode="d" horiz-adv-x="2021" d="M0 606q0 -285 283 -456q242 -150 540 -150q233 0 432 92q-119 41 -254 119l70 127q256 -141 416 -150q346 61 395 328q6 31 4 57q68 66 68 154q0 115 -96 115q-78 0 -138 -86q-49 14 -108 20q-51 129 -174 234h10q-18 106 -64 319q-68 293 -186 293q-125 0 -283 -412 q-49 4 -92 4q-84 0 -164 -12q-203 436 -335 436q-111 0 -166 -311q-29 -174 -39 -405q-119 -146 -119 -316zM537 766q0 43 32.5 73.5t75.5 30.5q45 0 76 -30.5t31 -73.5q0 -45 -30 -76t-77 -31q-45 0 -76.5 31t-31.5 76zM1198 840q0 43 32 74.5t75 31.5q45 0 76.5 -31.5 t31.5 -74.5q0 -45 -31.5 -75t-76.5 -30q-43 0 -75 30t-32 75z" />
<glyph unicode="e" horiz-adv-x="1591" d="M6 750q0 238 135 428t353 272q-109 -160 -109 -350q0 -301 236 -488l86 111l112 -90l-76 -96q59 -29 125 -43q2 -51 -20 -82q-41 -57 -164 -60v-106q215 2 274 145q16 39 17 88q35 -2 31 -2q309 0 495 248q-8 -301 -225 -513t-522 -212q-309 0 -528.5 220.5t-219.5 529.5 zM319 543q0 -39 28 -66.5t67 -27.5t66.5 27.5t27.5 66.5t-27.5 67.5t-66.5 28.5t-67 -28.5t-28 -67.5z" />
<glyph unicode="f" horiz-adv-x="1263" d="M0 326q0 -72 61 -115l263 -184q39 -27 84 -27q63 0 98 49l561 795q20 29 20 65q0 72 -63 115l-195 137l103 146q12 18 12 34q0 24 -26 43q-18 12 -35 13q-23 0 -41 -27l-105 -147q-29 12 -57 12q-66 0 -98 -49l-562 -795q-20 -28 -20 -65zM160 463l10 12q14 20 32 21 q13 0 27 -11l13 -8q20 -14 20 -32q0 -13 -10 -27l-10 -12q-14 -20 -33 -21q-13 0 -27 10l-12 8q-20 14 -20 33q0 13 10 27zM252 592l8 12q14 20 32 21q13 0 27 -11l13 -8q20 -14 20 -32q0 -13 -10 -27l-8 -12q-14 -20 -33 -21q-13 0 -27 10l-12 8q-20 14 -20 33q0 13 10 27z M299 367l8 10q15 21 34 21q12 0 26 -9l12 -10q20 -14 20 -32q0 -13 -10 -28l-8 -12q-14 -20 -32 -20q-13 0 -27 10l-13 10q-20 13 -20 32q0 13 10 28zM342 719l8 12q14 20 33 21q13 0 27 -11l12 -8q20 -14 20 -32q0 -13 -10 -27l-8 -12q-14 -20 -32 -21q-13 0 -27 10l-13 8 q-20 14 -20 33q0 13 10 27zM389 494l10 12q14 20 33 20q13 0 27 -10l12 -8q20 -14 20 -32q0 -13 -10 -27l-10 -13q-14 -20 -32 -20q-13 0 -27 10l-13 8q-20 14 -20 33q0 13 10 27zM440 266l11 13q14 20 32 20q13 0 27 -10l12 -10q20 -13 21 -32q0 -13 -11 -28l-10 -12 q-13 -20 -31 -21q-13 0 -28 11l-10 10q-21 15 -22 33q0 12 9 26zM479 623l10 12q14 20 33 20q13 0 27 -10l12 -8q20 -14 21 -32q0 -13 -11 -27l-10 -13q-14 -20 -32 -20q-13 0 -27 10l-13 8q-20 14 -20 33q0 13 10 27zM502 893l145 203q12 19 30 19q15 0 34 -13l225 -158 q25 -18 25 -39q0 -12 -9 -24l-145 -203q-12 -19 -30 -19q-15 0 -34 13l-225 159q-24 17 -24 37q0 12 8 25zM532 393l9 13q14 20 32 20q13 0 27 -10l12 -8q20 -14 21 -33q0 -13 -10 -27l-9 -12q-14 -20 -32 -21q-13 0 -27 11l-12 8q-20 14 -21 32q0 13 10 27zM623 522l8 13 q14 20 32 20q13 0 27 -10l12 -8q20 -14 21 -33q0 -13 -10 -27l-8 -12q-14 -20 -33 -21q-13 0 -27 11l-12 8q-20 14 -21 32q1 13 11 27zM770 1628l21 -164l83 11l-20 163zM926 1460l69 -49l95 135l-70 49zM1024 1370l162 35l18 -82l-162 -37z" />
<glyph unicode="g" horiz-adv-x="1716" d="M-4 360v50h1622v-50q0 -61 -34 -104t-81 -43h-153q45 -35 45 -90v-2q0 -47 -34 -80t-79 -33h-4q-47 0 -80 33t-33 80v2q0 55 45 90h-827q45 -35 45 -90v-2q0 -47 -33 -80t-80 -33h-2q-47 0 -80.5 33t-33.5 80v2q0 55 45 90h-133q-47 0 -81 43t-34 104zM-4 508v489 q0 61 33.5 103.5t81.5 42.5h174l-160 160l326 323l325 -323l-158 -160h439v78h250v-78h196q47 0 81 -42t34 -104v-489h-1622zM162 672h229v323h-229v-323zM299 1305l154 -158l159 160l-163 151zM522 672h230v323h-230v-323zM1282 717q0 -57 45 -58h121q45 0 45 58v207 q0 57 -45 57h-121q-45 0 -45 -57v-207z" />
<glyph unicode="h" horiz-adv-x="1335" d="M0 420q0 -68 47 -115t113 -47h22l-45 -211q8 -27 60 -43q8 -1 15 -1q30 0 48 20l76 235h567l76 -240q19 -20 46 -20q8 0 17 2q16 4 29 10q27 14 31 33l-45 215h55q66 0 113 47t47 115v624q0 68 -47 114t-113 46h-373q242 176 242 303q0 62 -50 103q-48 39 -104 39 q-35 0 -65 -19q-123 -70 -166 -385q-45 324 -166 391q-33 18 -68 19q-33 0 -65 -17q-88 -43 -88 -121q0 -131 252 -313h-301q-66 0 -113 -46t-47 -114v-624zM158 633v299q0 66 46 112t111 46h531q66 0 113 -46.5t47 -111.5v-299q0 -66 -47.5 -113t-112.5 -47h-531 q-66 0 -111.5 47t-45.5 113zM264 903q0 -35 23.5 -57.5t56.5 -22.5t56.5 22.5t23.5 57.5q0 33 -23.5 56.5t-56.5 23.5t-56.5 -23.5t-23.5 -56.5zM338 1554q15 7 27 7q10 0 18 -5q68 -39 109 -258q-189 144 -189 217q0 23 35 39zM418 684q42 -115 153 -115h15q119 6 168 111 l-86 39q-27 -53 -86 -57q-2 0 -4 -1q-50 0 -72 56v2l-2 2zM698 1292q41 219 109 256q10 6 21.5 6t23.5 -6q35 -16 35 -40q0 -74 -189 -216zM731 909q0 -33 23.5 -56.5t56.5 -23.5t56.5 24t23.5 56q0 33 -23.5 56.5t-56.5 23.5t-56.5 -23.5t-23.5 -56.5zM1057 446q0 66 65 66 q66 0 66 -66t-66 -65q-65 -1 -65 65z" />
<glyph unicode="i" horiz-adv-x="2033" d="M10 365l8 327q2 76 66 111l78 414q23 88 86 137q49 37 100 43h4l885 -2q98 -12 152 -78q41 -49 47 -113l82 -346l307 -22q53 -4 91 -40t38 -89v-342q0 -55 -38 -93.5t-91 -38.5h-150q-14 -98 -89 -163.5t-175 -65.5t-175 65.5t-87 163.5h-434q-12 -98 -87 -163.5 t-175 -65.5t-175 65.5t-88 163.5h-49q-55 0 -93 39.5t-38 92.5zM274 827l445 4v383h-350q-23 -10 -29 -40zM340 266q0 -47 34 -80.5t81 -33.5t80.5 33.5t33.5 80.5t-33.5 81t-80.5 34t-81 -34t-34 -81zM903 831h432l-82 359q-2 18 -34 24h-316v-383zM1294 270 q0 -47 34 -80.5t81 -33.5q49 0 82 33.5t33 80.5t-33 81t-82 34q-47 0 -81 -34t-34 -81z" />
<glyph unicode="j" horiz-adv-x="1794" d="M311 199q0 84 43 142t105 58q53 0 93 -44t52 -109l187 -68l-193 -49q-37 -129 -139 -129q-61 0 -104.5 58.5t-43.5 140.5zM1067 199q0 84 44 142t103 58q53 0 93.5 -44t52.5 -109l186 -68l-192 -49q-37 -129 -140 -129q-59 0 -103 58.5t-44 140.5z" />
<glyph unicode="k" horiz-adv-x="2017" d="M258 221q-1 16 -1 31q0 92 54 154q72 80 187 83l4 -133q-57 -4 -90 -41q-22 -23 -22 -64q0 -9 1 -20q6 -90 123 -92l-2 -135q-84 2 -154 45q-92 59 -100 172zM881 221q-1 13 -1 25q0 94 56 157q72 80 184 84l6 -133q-59 -2 -92 -39q-21 -26 -21 -69q0 -7 1 -15 q8 -90 123 -94l-2 -133q-82 0 -152 45q-94 59 -102 172zM1503 223q-1 13 -1 25q0 96 57 160q72 80 184 84l6 -134q-59 -4 -92 -41q-21 -25 -21 -67v-14q8 -92 123 -95l-2 -133q-82 0 -151 45q-95 57 -103 170z" />
<glyph unicode="l" horiz-adv-x="1822" d="M2 498q0 72 86 129q76 -72 219 -72q29 0 62 2q-6 49 -17 123q-35 -4 -63 -4q-98 0 -146 43q59 86 113 106q39 16 225 43q115 213 148 265q92 147 147 155h2q96 0 96 -190q0 -82 -18 -199q240 41 440 70q55 141 125 295q2 0 15 4q12 2 26 2q25 0 62 -6q1 -18 0 -37 q0 -113 -21 -254q35 -33 35 -111q154 -66 154 -104q0 -25 -54 -25q-41 0 -139 37q-129 -80 -409 -195q135 -47 354 -143q100 -55 100 -90q0 -41 -86 -59q-57 -14 -115 -15q-90 0 -215 23q-221 39 -487 133q-252 -59 -414 -59t-200 57q-25 39 -25 76zM604 565h5q27 0 47 20 q22 22 22 52q-2 31 -23.5 53.5t-50.5 22.5q-72 0 -72 -70q0 -78 72 -78zM799 694q0 -31 21.5 -52t53.5 -21q31 0 52.5 21.5t21.5 51.5q0 31 -21.5 52.5t-52.5 21.5q-75 0 -75 -74z" />
<glyph unicode="m" horiz-adv-x="1593" d="M-4 899q0 -104 67.5 -186t174.5 -107l-2 -31q0 -111 78 -196q89 -96 221 -96q141 0 231 108q106 -104 262 -104q121 0 213 67.5t111 175.5q5 25 5 52q0 39 -11 77q172 78 172 259q0 123 -93.5 206.5t-218.5 83.5q-90 0 -168 -45q-31 96 -117.5 154.5t-191.5 58.5 q-102 0 -184 -55t-113 -145q-59 25 -123 24q-127 0 -220 -88t-93 -213zM369 899q0 37 25.5 62.5t62.5 25.5t62.5 -25.5t25.5 -62.5t-25.5 -62.5t-62.5 -25.5t-62.5 25.5t-25.5 62.5zM557 670l94 49q33 -61 92 -62q66 0 95 52l92 -50q-55 -106 -187 -106q-125 0 -186 117z M743 795h11l-4 -4q-5 4 -7 4zM950 905q0 37 25.5 62.5t62.5 25.5t62.5 -25.5t25.5 -62.5t-25.5 -62.5t-62.5 -25.5t-62.5 25.5t-25.5 62.5z" />
<glyph unicode="n" horiz-adv-x="1669" d="M10 272l105 -67l100 153l-104 68zM80 1194q0 -115 95 -195.5t231 -80.5q29 0 59 4q16 -96 116.5 -162t235.5 -66q209 0 311 133q57 -18 117 -18q141 0 240.5 86t99.5 205q0 121 -99.5 207t-240.5 86q-12 0 -31 -2q-41 90 -141 151q-106 68 -221 68q-96 0 -166 -58 q-51 -39 -108 -125q-80 43 -172 43q-135 0 -230.5 -80.5t-95.5 -195.5zM188 575l103 -67l100 154l-102 67zM426 125l104 -66l101 154l-105 68zM612 434l105 -67l100 153l-104 68zM958 193l103 -68l100 156l-102 65zM1126 483l103 -65l100 153l-102 68z" />
<glyph unicode="o" horiz-adv-x="1716" d="M160 999q0 80 37 136q43 66 118 65q82 0 136 -88q47 -76 47 -162q0 -78 -37 -135q-45 -66 -119 -65q-80 0 -133 88q-49 77 -49 161zM424 408q0 145 149 241l-2 2q0 84 93 131q76 39 167 39q86 0 160 -37q90 -45 96 -120q174 -94 175 -256q0 -145 -142 -236 q-123 -78 -276 -78q-154 0 -277 78q-143 91 -143 236zM651 1186q0 92 49 164q55 82 144 82q86 0 141 -82q49 -72 49 -164q0 -90 -49 -162q-55 -82 -141 -82q-88 0 -144 80q-49 72 -49 164zM1184 961q0 127 80 206q55 55 118 56q76 0 119 -68q37 -57 37 -137q0 -127 -78 -207 q-55 -55 -121 -55q-74 0 -116 67q-39 60 -39 138z" />
<glyph unicode="p" horiz-adv-x="2463" d="M0 453l8 180l285 -12v14q0 154 100 289q-33 254 -33 442q0 272 84 272q137 0 510 -391q117 23 234 23q111 0 223 -21q371 389 506 389q86 0 86 -272q0 -178 -31 -426q111 -141 111 -305v-12l256 10l8 -180l-305 -13q-8 -16 -23 -41l310 -102l-58 -170l-370 123 q-270 -250 -713 -250q-451 0 -719 258l-393 -131l-58 170l334 113q-12 23 -16 30zM483 668l459 -185l59 150l-458 182zM1384 618l58 -149l342 131v10h28l91 35l-58 150z" />
<glyph unicode="q" horiz-adv-x="1597" d="M2 594q0 45 23 96q29 -98 211 -112q2 0 4 -1q153 0 196 254h-231v148h231v207q0 145 101.5 247.5t244.5 102.5t244.5 -102.5t101.5 -247.5v-477q27 -115 150 -144q16 -4 37 -4q127 0 205 117q16 -43 16 -82q0 -135 -170 -215q-76 -27 -162 -27q-170 0 -295 109 q-1 -12 -1 -23q0 -90 61 -141q100 -70 174 -70q25 0 43 9q-49 -84 -201 -84q-80 0 -166 22q-248 80 -248 244q0 31 11 61q-117 -123 -281 -123q-59 0 -108 17q-191 76 -191 219zM524 1087q0 -35 23.5 -58t56.5 -23q35 0 58.5 23.5t23.5 57.5q0 33 -23.5 56.5t-58.5 23.5 q-33 0 -56.5 -23.5t-23.5 -56.5zM827 1001q0 -33 23.5 -56t56.5 -23q35 0 58.5 23.5t23.5 55.5q0 35 -23.5 58.5t-58.5 23.5q-33 0 -56.5 -23.5t-23.5 -58.5z" />
<glyph unicode="r" horiz-adv-x="1726" d="M0 66q0 68 66 67h1439q41 0 66 -67q0 -66 -66 -66h-1439q-41 0 -66 66zM102 995h1366l-102 -178q68 20 119 21q166 0 166 -168q0 -256 -508 -328l-53 -113h-662zM543 1446q0 80 56 136t136 56t136.5 -56t56.5 -136q0 -72 -46 -125t-116 -64l-27 -155q-106 176 -139 209 q-57 55 -57 135zM1206 479q320 64 321 189q0 12 -3 24q-4 20 -39 21q-72 0 -197 -60z" />
<glyph unicode="s" horiz-adv-x="1927" d="M47 743q0 147 299 234q219 63 416 63q135 0 323 -55q115 -33 279 -98q126 -49 146 -49h1q12 2 152 135q121 115 161 115q3 0 5 -1q20 -4 20 -38q0 -55 -44 -172t-44 -158q0 -29 36 -128t36 -142q0 -41 -29 -41q-41 0 -150.5 120.5t-142.5 120.5q-20 0 -133 -53 q-133 -63 -241 -96q-168 -51 -346 -51q-203 0 -431 61q-313 83 -313 233zM383 762q0 -41 28.5 -69.5t69.5 -28.5t70 28.5t29 69.5t-29 68.5t-70 27.5t-69.5 -27.5t-28.5 -68.5z" />
<glyph unicode="t" horiz-adv-x="1855" d="M4 455q0 117 111 196q108 77 279 77q17 0 34 -1q180 -10 320 -184q14 76 79.5 134t141.5 58q-98 111 -99 250q0 123 75 222.5t198 146.5l-43 135l-187 -119l-67 107l258 161q16 11 33 11q11 0 22 -4q29 -10 37 -41l70 -222q29 2 51 2q33 0 74 -6l63 213q10 29 39 41 q29 10 55 -6l275 -174l-68 -106l-205 129l-39 -129q115 -49 184.5 -146.5t69.5 -214.5q0 -164 -131 -280.5t-317 -116.5q-61 0 -121 14q-6 -37 -18 -74q139 -113 268 -116h5q128 0 237 110l90 -88q-146 -148 -322 -148q-7 0 -14 1q-162 4 -328 131q-10 -14 -27 -25l142 -241 l-109 -64l-151 260q-23 -4 -43 -4q-106 0 -154 74q-33 -39 -82 -82v-301h-125v215q-61 -35 -123 -47l-153 -197l-99 78l86 111q-133 14 -206 90q-66 70 -66 170zM1024 1085q0 -39 26.5 -65.5t65.5 -26.5q37 0 63.5 27t26.5 65q0 37 -26.5 64t-63.5 27q-39 0 -65.5 -27 t-26.5 -64zM1255 879q18 -88 119 -97q27 2 49 13q49 25 62 84h-230zM1438 1102q0 -39 26.5 -65.5t65.5 -26.5q37 0 63.5 26.5t26.5 65.5q0 37 -26.5 63.5t-63.5 26.5q-39 0 -65.5 -26.5t-26.5 -63.5z" />
<glyph unicode="u" horiz-adv-x="1865" d="M37 883q31 -162 84 -224v-21q0 -291 211 -439q188 -133 516 -133q240 0 444 94q262 119 262 329q0 168 -204 310q2 14 108 123q39 -2 74 -2q279 0 301 114q-25 104 -334 125q-49 195 -237 254q-67 22 -139 22q-21 0 -42 -1q-121 -8 -198 -119q-74 -102 -74 -228 q0 -164 125 -247l-660 -52l7 11q-25 -4 -50 -4q-106 0 -194 88zM1057 1133q0 39 27.5 67.5t66.5 28.5t66.5 -29t27.5 -67q0 -39 -27.5 -67t-66.5 -28t-66.5 28t-27.5 67z" />
<glyph unicode="v" horiz-adv-x="1615" d="M31 827l209 -67q291 109 483 153q-162 115 -162 306q0 147 105 256q-94 16 -140 53q-51 41 -55 104l117 6q0 -12 12 -20q44 -36 175 -36q40 0 87 3q45 10 88 10h2h4q160 -2 271.5 -111.5t111.5 -264.5v-21q232 -69 232 -94.5t-277 -63.5q-92 -164 -282 -192 q94 -59 94 -170q0 -43 -14 -92q-37 -129 -152 -197q-102 -63 -240 -63q-61 0 -122 14l131 -186l155 -2v-117h-215l-200 287l57 38q-43 14 -68 31q-12 8 -35 25l-159 -252l80 -82l-82 -82l-148 147l217 338q-82 49 -169.5 155.5t-110.5 186.5zM950 1253q0 -37 27 -64.5 t65 -27.5q39 0 66 28t27 64q0 39 -27 66t-66 27t-65.5 -27t-26.5 -66z" />
<glyph unicode="w" horiz-adv-x="1800" d="M0 606l51 -123l215 90l-51 123zM117 1075q0 33 61 35l365 16q53 2 102 38t68 85l127 342q16 47 41 47t41 -49l118 -354q16 -49 64.5 -85t99.5 -36l383 -6q59 -2 60 -31q0 -23 -35 -49l-295 -227q-70 -53 -70 -150q0 -25 6 -45l107 -356q6 -20 6 -35q0 -33 -25 -33 q-18 0 -47 23l-311 227q-41 31 -100 31t-101 -31l-311 -227q-29 -23 -47 -23q-25 0 -25 33q0 16 4 35l99 344q6 20 6 45q0 98 -70 154l-288 233q-33 26 -33 49zM309 1466l154 -176l98 88l-153 174zM827 0h131v219h-131v-219zM1235 1352l106 -76l136 192l-109 76zM1456 528 l225 -59l33 129l-225 59z" />
<glyph unicode="x" horiz-adv-x="1638" d="M0 414l162 49l24 -107l-131 -63q51 -49 119 -49q61 0 109.5 39t62.5 98l121 22v-235h-41q-117 0 -199 -24.5t-82 -59.5t82 -59.5t199 -24.5q115 0 197 24.5t82 59.5q0 2 -3 4h185l-2 -4q0 -35 82 -59.5t198 -24.5q115 0 197 24.5t82 59.5t-82 59.5t-197 24.5 q-31 0 -65 -2v235l114 -20q12 -61 61.5 -101t110.5 -40q68 0 119 49l-131 63l25 107l162 -49v10q0 67 -49 118q-52 54 -126 54q-104 0 -153 -94l-133 24v64h-633v-62l-137 -24q-49 94 -156 94q-74 0 -125 -53t-49 -127zM160 1090q0 -92 22.5 -157t55.5 -65t55 66v-266h962 v250q23 -49 50 -50q33 0 55 64.5t22 157.5q0 92 -22.5 156.5t-54.5 64.5q-27 0 -50 -49v231h-428v145h-110v-145h-424v-248q-23 66 -55 66q-33 0 -55.5 -64.5t-22.5 -156.5zM397 1145q0 47 34 81t81 34t81 -34t34 -81t-34 -81t-81 -34t-81 34t-34 81zM618 842v92h322v-92 h-322zM915 1145q0 47 34 81t81 34t81 -34t34 -81t-34 -81t-81 -34t-81 34t-34 81z" />
<glyph unicode="y" horiz-adv-x="1464" d="M-10 1292q0 57 35.5 107.5t97.5 73.5q35 12 72 12q76 0 130 -48t54 -122q72 43 156 57q-25 39 -25 84q0 59 37 109.5t98 70.5q35 12 72 13q76 0 130 -49.5t54 -122.5q0 -90 -78 -150q162 -82 162 -233q0 -143 -139 -267q145 37 233 37q104 0 104 -53q0 -7 -1 -14 q-47 -125 -260 -125q-28 0 -58 2q162 -51 162 -215q119 31 201 30q158 0 157 -102q0 -14 -4 -25q-31 -66 -180 -65q-121 0 -299 47q221 -176 221 -274q0 -37 -30 -54q-18 -6 -43 -6q-172 0 -316 307q-102 86 -112 242v-32q0 -261 -97 -261q-16 0 -37 10q-51 27 -51 115 q0 113 78 305q-16 -1 -31 0q-103 0 -184 35q-102 45 -133 135q-14 37 -14 82q0 84 47 172q-13 -2 -27 -1q-51 0 -95 25q-56 32 -77 91q-10 28 -10 57zM285 989q0 -31 20.5 -51t50.5 -20q29 0 49.5 20t20.5 51q0 29 -20.5 49.5t-49.5 20.5q-31 0 -51 -20.5t-20 -49.5z M682 1139q0 -31 21.5 -51.5t50.5 -20.5t50 20.5t21 51.5q0 29 -21.5 49t-49.5 20q-29 0 -50.5 -20t-21.5 -49z" />
<glyph unicode="z" horiz-adv-x="1509" d="M14 573q0 92 123 195q-18 66 -20 131q0 13 -1 26q0 240 109 433q152 266 459 280q16 1 32 1q294 0 478 -218q172 -201 172 -465q0 -86 -20 -178q106 -96 106 -182q0 -29 -12 -57q-25 -51 -70 -52q-72 0 -113 64q-301 -541 -1230 -551q279 94 301 299q0 94 -99 266 q-25 -53 -49 -67q-47 -31 -84 -31q-45 0 -69 49q-13 28 -13 57zM362 1159q0 -41 29 -69.5t70 -28.5t69.5 28.5t28.5 69.5t-28.5 71t-69.5 30t-70 -30t-29 -71zM629 936q0 -129 172 -139q43 2 76 18q74 35 77 121h-325zM936 1280q0 -41 28.5 -69.5t69.5 -28.5t70 28.5 t29 69.5t-29 70.5t-70 29.5t-69.5 -29.5t-28.5 -70.5z" />
<glyph unicode="{" horiz-adv-x="1656" d="M16 1622q109 8 267 -53q301 -117 544 -447q29 342 273 342q20 0 39 -2q219 -25 313 -354q61 -215 64 -516q0 -57 10 -172q18 -217 67 -436q-772 121 -1179 378q-180 113 -242 302q-23 66 -22 124q0 94 57 168q102 133 340 134q80 0 172 -17q-217 283 -469 385 q-131 53 -225 47zM719 1073q104 -137 194 -311q252 -485 355 -586l82 86q-92 92 -332 555q-84 164 -191 305q-4 -45 -2 -71q-51 12 -106 22z" />
<glyph unicode="|" horiz-adv-x="1587" d="M8 1122q-6 37 17 103l897 -895l-9 -113zM72 1313l159 147l910 -907l-27 -125l-129 -29zM322 1503q29 10 98 23l917 -918l-125 6zM1004 145l10 164l180 39l35 170l170 -6l82 -248q-72 -39 -129 -96q-45 -45 -76 -109zM1366 31q23 41 51 69q43 41 94 72l15 -41 q10 -31 10 -55q0 -37 -17.5 -54.5t-48.5 -17.5t-65 14z" />
<glyph unicode="}" horiz-adv-x="1783" d="M0 199q0 -92 51 -145.5t152 -53.5q96 0 206.5 48t190.5 126q150 143 150 318q0 61 -25 112q326 256 569 481q406 375 406 502q0 51 -49 51q-203 0 -1004 -942q-61 41 -147 41q-166 0 -310 -137q-84 -80 -137 -192.5t-53 -208.5z" />
<glyph unicode="~" horiz-adv-x="2562" d="M49 354l156 76q63 -125 188 -125q29 0 47 4q137 31 189 148q-141 -14 -170 -15q-55 0 -129 21q-98 25 -99 65q0 31 101 101q125 84 155 133l119 188q88 131 209 209q158 100 363 101q168 0 321 -119q86 -66 232 -236q127 -150 194 -182q199 -100 199 -162q0 -33 -45 -69 q-61 -49 -293 -37q88 -147 219 -148q61 0 129 31q90 41 90 147q0 145 -135 375q-25 -2 -16 -2q-102 0 -175 71.5t-73 174.5q0 102 72.5 174t175.5 72q102 0 173.5 -72t71.5 -174q0 -100 -71 -172q150 -256 149 -447q0 -219 -190 -305q-104 -47 -201 -47q-203 0 -342 193 q-43 59 -64 112l50 19q-84 -2 -172 -41q25 -70 94 -234l-158 -67q-76 176 -102 247q-39 -4 -76 -4q-92 0 -158 21q-31 -145 -112 -268l-144 96q70 104 90 229q-80 23 -147 27l45 -10q-12 -66 -61 -136q-94 -135 -269 -176q-43 -10 -86 -10q-106 0 -201.5 62.5t-142.5 160.5z M707 803q0 -68 46 -114t113 -46q68 0 114 46t46 114q0 66 -47 113t-113 47q-68 0 -113.5 -46t-45.5 -114zM811 791q0 61 59 61t60 -61q0 -59 -60 -60q-59 1 -59 60zM1288 797q0 -68 46 -114t114 -46t114 46t46 114q0 66 -47.5 112.5t-112.5 46.5q-66 0 -113 -46.5 t-47 -112.5zM1386 791q0 61 60 61q59 0 59 -61q0 -59 -59 -60q-60 1 -60 60zM1604 1329l120 125l119 -117l-121 -123zM1894 1522l164 51l43 -141l-166 -52zM1999 1104q0 -31 21.5 -52.5t52.5 -21.5t51 21.5t20 52.5t-20.5 52.5t-50.5 21.5q-31 0 -52.5 -21.5t-21.5 -52.5z M2210 1421l104 121l131 -112l-104 -121z" />
<glyph unicode="&#xaa;" d="M33 221q82 90 151 221q84 158 107 187q86 111 280 151q-2 35 -2 43q0 285 199 483.5t483 198.5q285 0 482.5 -198.5t197.5 -483.5q0 -283 -198.5 -481.5t-481.5 -198.5q-182 0 -337.5 89.5t-249.5 244.5q-54 7 -94 7q-16 0 -29 -1q-57 -4 -138 -34q-175 -68 -370 -228z M831 975q0 -47 33 -81t80 -34t81 34t34 81t-34 81t-81 34t-80 -34t-33 -81zM1053 694q43 -168 256 -180q231 14 262 180h-518zM1528 1030q0 -47 33.5 -79.5t80.5 -32.5t80 32.5t33 79.5t-32.5 81t-80.5 34q-47 0 -80.5 -34t-33.5 -81z" />
<glyph unicode="&#xad;" horiz-adv-x="1400" d="M227 813q213 0 344 180q115 160 115 383q0 -223 115 -383q131 -180 344 -180q-213 0 -344 -180q-115 -160 -115 -383q0 223 -115 383q-131 180 -344 180z" />
<glyph unicode="&#xb2;" horiz-adv-x="1933" d="M100 721q0 33 22.5 55.5t55.5 22.5t54.5 -22.5t21.5 -55.5t-21.5 -55.5t-54.5 -22.5t-55.5 22.5t-22.5 55.5zM416 618q-12 18 8 48q51 35 145 69q180 66 379 66q164 0 332 -101q117 -70 201 -69q145 0 211 94q27 39 26 84q0 59 -47 98t-106 33q-57 -6 -70 -63 q-14 -74 55 -76q33 0 33 -33q0 -23 -33 -35q-68 0 -101.5 44t-21.5 112q18 109 132 119q68 6 128 -29t85 -96q14 -37 14 -76q0 -63 -39 -121q-84 -123 -266 -123q-102 0 -236 80q-152 90 -297 90q-184 0 -354 -61q-53 -18 -131 -62q-29 -21 -47 8z" />
<glyph unicode="&#xb3;" horiz-adv-x="1845" d="M16 758q0 12 11 16q193 141 428 139q209 -2 469 -133q129 74 161 97l23 -33q-55 -41 -141 -86q86 -45 141 -84l-23 -33q-72 47 -161 94q-262 -129 -469 -133q-154 -2 -308 68q-80 37 -122 73q-9 7 -9 15zM72 758q176 -117 383 -115q184 2 422 115q-236 113 -422 114 q-209 5 -383 -114zM240 758q0 45 45 45q47 0 47 -45t-47 -45q-45 0 -45 45zM1085 877zM1268 770q74 66 184 59q43 -2 123 -38.5t123 -36.5q27 0 57 8l8 -41q-35 -6 -65 -6q-49 0 -128 35.5t-120 37.5q-53 2 -156 -49z" />
<glyph unicode="&#xb9;" horiz-adv-x="1853" d="M23 715q0 35 24.5 59.5t58.5 24.5q35 0 59.5 -24.5t24.5 -59.5t-24.5 -59.5t-59.5 -24.5t-59 24.5t-24 59.5zM303 713l258 86l258 -86l-258 -88zM938 715q0 35 24.5 59.5t59.5 24.5t59.5 -24.5t24.5 -59.5t-24.5 -59.5t-59.5 -24.5t-59.5 24.5t-24.5 59.5zM1219 713 l258 86l258 -86l-258 -88z" />
<glyph unicode="&#xba;" horiz-adv-x="1716" d="M160 999q0 80 37 136q43 66 118 65q82 0 136 -88q47 -76 47 -162q0 -78 -37 -135q-45 -66 -119 -65q-80 0 -133 88q-49 77 -49 161zM424 408q0 145 149 241l-2 2q0 84 93 131q76 39 167 39q86 0 160 -37q90 -45 96 -120q174 -94 175 -256q0 -145 -142 -236 q-123 -78 -276 -78q-154 0 -277 78q-143 91 -143 236zM651 1186q0 92 49 164q55 82 144 82q86 0 141 -82q49 -72 49 -164q0 -90 -49 -162q-55 -82 -141 -82q-88 0 -144 80q-49 72 -49 164zM1184 961q0 127 80 206q55 55 118 56q76 0 119 -68q37 -57 37 -137q0 -127 -78 -207 q-55 -55 -121 -55q-74 0 -116 67q-39 60 -39 138z" />
<glyph unicode="&#xc0;" d="M102 2670l539 -323l362 592l365 -592l499 305l-123 -629h-1495zM186 3104l119 109l215 -238l-121 -106zM276 1761v135h1442v-135h-1442zM901 3399h162v-319h-160zM1509 2957l205 244l123 -103l-205 -245zM49 811q0 285 198.5 483.5t483.5 198.5t483.5 -198.5 t198.5 -483.5q0 -8 -2 -43q193 -41 279 -152q31 -41 108 -186q72 -137 152 -221q-195 160 -371 227q-80 31 -137 35q-13 1 -30 1q-40 0 -95 -7q-92 -156 -248 -245t-338 -89q-283 0 -482.5 198.5t-199.5 481.5zM225 1018q0 -47 34 -80t81 -33t81 33t34 80q0 49 -33 82 t-82 33t-82 -33t-33 -82zM412 682q31 -166 262 -180q211 12 256 180h-518zM924 963q0 -47 32.5 -81t79.5 -34q49 0 82 32.5t33 82.5q0 49 -33 81.5t-82 32.5q-47 0 -79.5 -33.5t-32.5 -80.5z" />
<glyph unicode="&#xc2;" d="M1139 3059q0 -109 59.5 -195.5t153.5 -123.5q-158 -166 -158 -375q0 -250 214 -427t517 -177t517.5 177t214.5 427q0 201 -148 363q106 29 177 121t71 210q0 141 -96.5 240.5t-231.5 99.5t-231 -99t-96 -241q0 -57 18 -112q-98 23 -195 22q-74 0 -147 -12q14 49 14 102 q0 141 -95 240.5t-230 99.5t-231.5 -99.5t-96.5 -240.5zM1448 2496q0 43 31 73t72 30q43 0 72.5 -30t29.5 -73q0 -41 -29.5 -71.5t-72.5 -30.5q-41 0 -72 30.5t-31 71.5zM1641 2244l123 41q37 -104 159 -104q127 0 164 94h-2l123 -43q-16 -47 -61 -94q-86 -88 -224 -88 q-115 0 -198 73q-64 53 -84 121zM2192 2496q0 43 29.5 73t72.5 30q41 0 70.5 -30t29.5 -73q0 -41 -29.5 -71.5t-70.5 -30.5q-43 0 -72.5 30.5t-29.5 71.5zM49 811q0 285 198.5 483.5t483.5 198.5t483.5 -198.5t198.5 -483.5q0 -8 -2 -43q193 -41 279 -152q31 -41 108 -186 q72 -137 152 -221q-195 160 -371 227q-80 31 -137 35q-13 1 -30 1q-40 0 -95 -7q-92 -156 -248 -245t-338 -89q-283 0 -482.5 198.5t-199.5 481.5zM225 1018q0 -47 34 -80t81 -33t81 33t34 80q0 49 -33 82t-82 33t-82 -33t-33 -82zM412 682q31 -166 262 -180q211 12 256 180 h-518zM924 963q0 -47 32.5 -81t79.5 -34q49 0 82 32.5t33 82.5q0 49 -33 81.5t-82 32.5q-47 0 -79.5 -33.5t-32.5 -80.5z" />
<glyph unicode="&#xc3;" d="M86 2005l156 76q63 -125 188 -125q29 0 47 4q137 31 189 148q-141 -14 -170 -15q-55 0 -129 21q-98 25 -99 65q0 31 101 101q125 84 155 133l119 188q88 131 209 209q158 100 363 101q168 0 321 -119q86 -66 232 -236q127 -150 194 -182q199 -100 199 -162q0 -33 -45 -69 q-61 -49 -293 -37q88 -147 219 -148q61 0 129 31q90 41 90 147q0 145 -135 375q-25 -2 -16 -2q-102 0 -175 71.5t-73 174.5q0 102 72.5 174t175.5 72q102 0 173.5 -72t71.5 -174q0 -100 -71 -172q150 -256 149 -447q0 -219 -190 -305q-104 -47 -201 -47q-203 0 -342 193 q-43 59 -64 112l50 19q-84 -2 -172 -41q25 -70 94 -234l-158 -67q-76 176 -102 247q-39 -4 -76 -4q-92 0 -158 21q-31 -145 -112 -268l-144 96q70 104 90 229q-80 23 -147 27l45 -10q-12 -66 -61 -136q-94 -135 -269 -176q-43 -10 -86 -10q-106 0 -201.5 62.5t-142.5 160.5z M744 2454q0 -68 46 -114t113 -46q68 0 114 46t46 114q0 66 -47 113t-113 47q-68 0 -113.5 -46t-45.5 -114zM848 2442q0 61 59 61t60 -61q0 -59 -60 -60q-59 1 -59 60zM1325 2448q0 -68 46 -114t114 -46t114 46t46 114q0 66 -47.5 112.5t-112.5 46.5q-66 0 -113 -46.5 t-47 -112.5zM1423 2442q0 61 60 61q59 0 59 -61q0 -59 -59 -60q-60 1 -60 60zM1641 2980l120 125l119 -117l-121 -123zM1931 3173l164 51l43 -141l-166 -52zM2036 2755q0 -31 21.5 -52.5t52.5 -21.5t51 21.5t20 52.5t-20.5 52.5t-50.5 21.5q-31 0 -52.5 -21.5t-21.5 -52.5z M2247 3072l104 121l131 -112l-104 -121zM49 811q0 285 198.5 483.5t483.5 198.5t483.5 -198.5t198.5 -483.5q0 -8 -2 -43q193 -41 279 -152q31 -41 108 -186q72 -137 152 -221q-195 160 -371 227q-80 31 -137 35q-13 1 -30 1q-40 0 -95 -7q-92 -156 -248 -245t-338 -89 q-283 0 -482.5 198.5t-199.5 481.5zM225 1018q0 -47 34 -80t81 -33t81 33t34 80q0 49 -33 82t-82 33t-82 -33t-33 -82zM412 682q31 -166 262 -180q211 12 256 180h-518zM924 963q0 -47 32.5 -81t79.5 -34q49 0 82 32.5t33 82.5q0 49 -33 81.5t-82 32.5q-47 0 -79.5 -33.5 t-32.5 -80.5z" />
<glyph unicode="&#xc8;" horiz-adv-x="1591" d="M414 2670l539 -323l362 592l365 -592l499 305l-123 -629h-1495zM498 3104l119 109l215 -238l-121 -106zM588 1761v135h1442v-135h-1442zM1213 3399h162v-319h-160zM1821 2957l205 244l123 -103l-205 -245zM-2 733q10 -303 227 -514t520 -211q311 0 530.5 219t219.5 529 q0 238 -135 429t-352 271q109 -158 108 -350q0 -299 -235 -488l-88 111l-113 -90l78 -96q-61 -29 -125 -43q-2 -51 20 -82q41 -57 164 -58l-2 -108q-215 2 -272 145q-16 41 -19 88q-35 0 -28 0q-310 0 -498 248zM991 549q0 41 28 68.5t68 27.5q39 0 67 -27.5t28 -68.5 q0 -39 -28 -66.5t-67 -27.5q-41 0 -68.5 27.5t-27.5 66.5z" />
<glyph unicode="&#xca;" horiz-adv-x="1591" d="M1452 3059q0 -109 59.5 -195.5t153.5 -123.5q-158 -166 -158 -375q0 -250 214 -427t517 -177t517.5 177t214.5 427q0 201 -148 363q106 29 177 121t71 210q0 141 -96.5 240.5t-231.5 99.5t-231 -99t-96 -241q0 -57 18 -112q-98 23 -195 22q-74 0 -147 -12q14 49 14 102 q0 141 -95 240.5t-230 99.5t-231.5 -99.5t-96.5 -240.5zM1761 2496q0 43 31 73t72 30q43 0 72.5 -30t29.5 -73q0 -41 -29.5 -71.5t-72.5 -30.5q-41 0 -72 30.5t-31 71.5zM1954 2244l123 41q37 -104 159 -104q127 0 164 94h-2l123 -43q-16 -47 -61 -94q-86 -88 -224 -88 q-115 0 -198 73q-64 53 -84 121zM2505 2496q0 43 29.5 73t72.5 30q41 0 70.5 -30t29.5 -73q0 -41 -29.5 -71.5t-70.5 -30.5q-43 0 -72.5 30.5t-29.5 71.5zM-2 733q10 -303 227 -514t520 -211q311 0 530.5 219t219.5 529q0 238 -135 429t-352 271q109 -158 108 -350 q0 -299 -235 -488l-88 111l-113 -90l78 -96q-61 -29 -125 -43q-2 -51 20 -82q41 -57 164 -58l-2 -108q-215 2 -272 145q-16 41 -19 88q-35 0 -28 0q-310 0 -498 248zM991 549q0 41 28 68.5t68 27.5q39 0 67 -27.5t28 -68.5q0 -39 -28 -66.5t-67 -27.5q-41 0 -68.5 27.5 t-27.5 66.5z" />
<glyph unicode="&#xcc;" horiz-adv-x="2033" d="M1065 2670l539 -323l362 592l365 -592l499 305l-123 -629h-1495zM1149 3104l119 109l215 -238l-121 -106zM1239 1761v135h1442v-135h-1442zM1864 3399h162v-319h-160zM2472 2957l205 244l123 -103l-205 -245zM-4 365q0 -55 38 -93.5t91 -38.5h151q12 -98 87 -163.5 t176 -65.5q100 0 174.5 65.5t87.5 163.5h434q14 -98 89 -163.5t175 -65.5t175 65.5t87 163.5h49q53 0 92.5 39t36.5 93l-8 327q-2 76 -65 111l-78 414q-23 88 -86 137q-47 37 -100 43h-5l-884 -2q-98 -12 -152 -78q-41 -49 -45 -113l-82 -346l-309 -22q-53 -4 -91 -40 t-38 -89v-342zM426 270q0 47 34 81t81 34t80.5 -34t33.5 -81t-33.5 -80.5t-80.5 -33.5t-81 33.5t-34 80.5zM614 831l84 359q0 18 33 24h318v-383h-435zM1231 831v383h352q20 -10 27 -40l65 -347zM1380 266q0 47 34 81t81 34t81 -34t34 -81t-34 -80.5t-81 -33.5t-81 33.5 t-34 80.5z" />
<glyph unicode="&#xce;" horiz-adv-x="2033" d="M2103 3059q0 -109 59.5 -195.5t153.5 -123.5q-158 -166 -158 -375q0 -250 214 -427t517 -177t517.5 177t214.5 427q0 201 -148 363q106 29 177 121t71 210q0 141 -96.5 240.5t-231.5 99.5t-231 -99t-96 -241q0 -57 18 -112q-98 23 -195 22q-74 0 -147 -12q14 49 14 102 q0 141 -95 240.5t-230 99.5t-231.5 -99.5t-96.5 -240.5zM2412 2496q0 43 31 73t72 30q43 0 72.5 -30t29.5 -73q0 -41 -29.5 -71.5t-72.5 -30.5q-41 0 -72 30.5t-31 71.5zM2605 2244l123 41q37 -104 159 -104q127 0 164 94h-2l123 -43q-16 -47 -61 -94q-86 -88 -224 -88 q-115 0 -198 73q-64 53 -84 121zM3156 2496q0 43 29.5 73t72.5 30q41 0 70.5 -30t29.5 -73q0 -41 -29.5 -71.5t-70.5 -30.5q-43 0 -72.5 30.5t-29.5 71.5zM-4 365q0 -55 38 -93.5t91 -38.5h151q12 -98 87 -163.5t176 -65.5q100 0 174.5 65.5t87.5 163.5h434 q14 -98 89 -163.5t175 -65.5t175 65.5t87 163.5h49q53 0 92.5 39t36.5 93l-8 327q-2 76 -65 111l-78 414q-23 88 -86 137q-47 37 -100 43h-5l-884 -2q-98 -12 -152 -78q-41 -49 -45 -113l-82 -346l-309 -22q-53 -4 -91 -40t-38 -89v-342zM426 270q0 47 34 81t81 34t80.5 -34 t33.5 -81t-33.5 -80.5t-80.5 -33.5t-81 33.5t-34 80.5zM614 831l84 359q0 18 33 24h318v-383h-435zM1231 831v383h352q20 -10 27 -40l65 -347zM1380 266q0 47 34 81t81 34t81 -34t34 -81t-34 -80.5t-81 -33.5t-81 33.5t-34 80.5z" />
<glyph unicode="&#xd1;" horiz-adv-x="1841" d="M287 2007l156 76q63 -125 188 -125q29 0 47 4q137 31 189 148q-141 -14 -170 -15q-55 0 -129 21q-98 25 -99 65q0 31 101 101q125 84 155 133l119 188q88 131 209 209q158 100 363 101q168 0 321 -119q86 -66 232 -236q127 -150 194 -182q199 -100 199 -162 q0 -33 -45 -69q-61 -49 -293 -37q88 -147 219 -148q61 0 129 31q90 41 90 147q0 145 -135 375q-25 -2 -16 -2q-102 0 -175 71.5t-73 174.5q0 102 72.5 174t175.5 72q102 0 173.5 -72t71.5 -174q0 -100 -71 -172q150 -256 149 -447q0 -219 -190 -305q-104 -47 -201 -47 q-203 0 -342 193q-43 59 -64 112l50 19q-84 -2 -172 -41q25 -70 94 -234l-158 -67q-76 176 -102 247q-39 -4 -76 -4q-92 0 -158 21q-31 -145 -112 -268l-144 96q70 104 90 229q-80 23 -147 27l45 -10q-12 -66 -61 -136q-94 -135 -269 -176q-43 -10 -86 -10 q-106 0 -201.5 62.5t-142.5 160.5zM945 2456q0 -68 46 -114t113 -46q68 0 114 46t46 114q0 66 -47 113t-113 47q-68 0 -113.5 -46t-45.5 -114zM1049 2444q0 61 59 61t60 -61q0 -59 -60 -60q-59 1 -59 60zM1526 2450q0 -68 46 -114t114 -46t114 46t46 114q0 66 -47.5 112.5 t-112.5 46.5q-66 0 -113 -46.5t-47 -112.5zM1624 2444q0 61 60 61q59 0 59 -61q0 -59 -59 -60q-60 1 -60 60zM1842 2982l120 125l119 -117l-121 -123zM2132 3175l164 51l43 -141l-166 -52zM2237 2757q0 -31 21.5 -52.5t52.5 -21.5t51 21.5t20 52.5t-20.5 52.5t-50.5 21.5 q-31 0 -52.5 -21.5t-21.5 -52.5zM2448 3074l104 121l131 -112l-104 -121zM0 881q92 274 326.5 443t525.5 169q72 0 141 -10l27 106q12 51 55 51q74 0 74 -57q0 -10 -2 -22l-27 -109q283 -88 458 -324.5t175 -533.5q0 -57 -6 -115q-41 94 -125 149.5t-186 55.5 q-162 0 -265 -127q-39 178 -204 244l-142 -586q-4 -98 -64.5 -161.5t-156.5 -63.5q-35 0 -78 10q-182 43 -182 248q0 33 6 61q12 53 59 53q9 0 19 -2q43 -8 51 -77q-4 -18 -4 -39q0 -98 80 -117q27 -7 50 -7q88 0 91 105l142 600q-170 0 -273 -135q-20 123 -114.5 202 t-219.5 79q-133 0 -231 -90z" />
<glyph unicode="&#xd2;" horiz-adv-x="1593" d="M166 2670l539 -323l362 592l365 -592l499 305l-123 -629h-1495zM250 3104l119 109l215 -238l-121 -106zM340 1761v135h1442v-135h-1442zM965 3399h162v-319h-160zM1573 2957l205 244l123 -103l-205 -245zM0 621l217 -160q-33 -70 -33 -156q2 -207 244 -305h641 q254 109 254 332q2 68 -31 129l226 160l-70 100l-231 -162q-14 14 -58 45q111 92 119 250q0 141 -94 250l100 420l-346 114l-242 -354q-213 -12 -356 -134t-139 -300q4 -49 18 -92q37 -104 121 -170q-20 -8 -47 -31l-219 162zM367 973q0 37 26.5 63.5t63.5 26.5 q39 0 65.5 -26.5t26.5 -63.5t-26.5 -63.5t-65.5 -26.5q-37 0 -63.5 26.5t-26.5 63.5zM590 655v123h293v-123h-293zM883 963q0 37 26.5 63.5t63.5 26.5q39 0 65.5 -27t26.5 -63q0 -37 -26.5 -64t-65.5 -27q-37 0 -63.5 27t-26.5 64z" />
<glyph unicode="&#xd4;" horiz-adv-x="1593" d="M1204 3059q0 -109 59.5 -195.5t153.5 -123.5q-158 -166 -158 -375q0 -250 214 -427t517 -177t517.5 177t214.5 427q0 201 -148 363q106 29 177 121t71 210q0 141 -96.5 240.5t-231.5 99.5t-231 -99t-96 -241q0 -57 18 -112q-98 23 -195 22q-74 0 -147 -12q14 49 14 102 q0 141 -95 240.5t-230 99.5t-231.5 -99.5t-96.5 -240.5zM1513 2496q0 43 31 73t72 30q43 0 72.5 -30t29.5 -73q0 -41 -29.5 -71.5t-72.5 -30.5q-41 0 -72 30.5t-31 71.5zM1706 2244l123 41q37 -104 159 -104q127 0 164 94h-2l123 -43q-16 -47 -61 -94q-86 -88 -224 -88 q-115 0 -198 73q-64 53 -84 121zM2257 2496q0 43 29.5 73t72.5 30q41 0 70.5 -30t29.5 -73q0 -41 -29.5 -71.5t-70.5 -30.5q-43 0 -72.5 30.5t-29.5 71.5zM0 621l217 -160q-33 -70 -33 -156q2 -207 244 -305h641q254 109 254 332q2 68 -31 129l226 160l-70 100l-231 -162 q-14 14 -58 45q111 92 119 250q0 141 -94 250l100 420l-346 114l-242 -354q-213 -12 -356 -134t-139 -300q4 -49 18 -92q37 -104 121 -170q-20 -8 -47 -31l-219 162zM367 973q0 37 26.5 63.5t63.5 26.5q39 0 65.5 -26.5t26.5 -63.5t-26.5 -63.5t-65.5 -26.5 q-37 0 -63.5 26.5t-26.5 63.5zM590 655v123h293v-123h-293zM883 963q0 37 26.5 63.5t63.5 26.5q39 0 65.5 -27t26.5 -63q0 -37 -26.5 -64t-65.5 -27q-37 0 -63.5 27t-26.5 64z" />
<glyph unicode="&#xd5;" horiz-adv-x="1593" d="M149 2005l156 76q63 -125 188 -125q29 0 47 4q137 31 189 148q-141 -14 -170 -15q-55 0 -129 21q-98 25 -99 65q0 31 101 101q125 84 155 133l119 188q88 131 209 209q158 100 363 101q168 0 321 -119q86 -66 232 -236q127 -150 194 -182q199 -100 199 -162 q0 -33 -45 -69q-61 -49 -293 -37q88 -147 219 -148q61 0 129 31q90 41 90 147q0 145 -135 375q-25 -2 -16 -2q-102 0 -175 71.5t-73 174.5q0 102 72.5 174t175.5 72q102 0 173.5 -72t71.5 -174q0 -100 -71 -172q150 -256 149 -447q0 -219 -190 -305q-104 -47 -201 -47 q-203 0 -342 193q-43 59 -64 112l50 19q-84 -2 -172 -41q25 -70 94 -234l-158 -67q-76 176 -102 247q-39 -4 -76 -4q-92 0 -158 21q-31 -145 -112 -268l-144 96q70 104 90 229q-80 23 -147 27l45 -10q-12 -66 -61 -136q-94 -135 -269 -176q-43 -10 -86 -10 q-106 0 -201.5 62.5t-142.5 160.5zM807 2454q0 -68 46 -114t113 -46q68 0 114 46t46 114q0 66 -47 113t-113 47q-68 0 -113.5 -46t-45.5 -114zM911 2442q0 61 59 61t60 -61q0 -59 -60 -60q-59 1 -59 60zM1388 2448q0 -68 46 -114t114 -46t114 46t46 114q0 66 -47.5 112.5 t-112.5 46.5q-66 0 -113 -46.5t-47 -112.5zM1486 2442q0 61 60 61q59 0 59 -61q0 -59 -59 -60q-60 1 -60 60zM1704 2980l120 125l119 -117l-121 -123zM1994 3173l164 51l43 -141l-166 -52zM2099 2755q0 -31 21.5 -52.5t52.5 -21.5t51 21.5t20 52.5t-20.5 52.5t-50.5 21.5 q-31 0 -52.5 -21.5t-21.5 -52.5zM2310 3072l104 121l131 -112l-104 -121zM0 621l217 -160q-33 -70 -33 -156q2 -207 244 -305h641q254 109 254 332q2 68 -31 129l226 160l-70 100l-231 -162q-14 14 -58 45q111 92 119 250q0 141 -94 250l100 420l-346 114l-242 -354 q-213 -12 -356 -134t-139 -300q4 -49 18 -92q37 -104 121 -170q-20 -8 -47 -31l-219 162zM367 973q0 37 26.5 63.5t63.5 26.5q39 0 65.5 -26.5t26.5 -63.5t-26.5 -63.5t-65.5 -26.5q-37 0 -63.5 26.5t-26.5 63.5zM590 655v123h293v-123h-293zM883 963q0 37 26.5 63.5 t63.5 26.5q39 0 65.5 -27t26.5 -63q0 -37 -26.5 -64t-65.5 -27q-37 0 -63.5 27t-26.5 64z" />
<glyph unicode="&#xd9;" horiz-adv-x="1865" d="M162 2670l539 -323l362 592l365 -592l499 305l-123 -629h-1495zM246 3104l119 109l215 -238l-121 -106zM336 1761v135h1442v-135h-1442zM961 3399h162v-319h-160zM1569 2957l205 244l123 -103l-205 -245zM25 1034q25 104 333 125q49 195 238 254q67 22 139 22q21 0 41 -1 q121 -8 201 -119q72 -102 72 -228q0 -164 -125 -247l659 -52l-6 11q25 -4 49 -4q106 0 195 88q-31 -162 -84 -224v-22q0 -291 -209 -438q-190 -133 -518 -133q-240 0 -445 94q-262 119 -262 329q0 168 205 310q-2 14 -109 123q-39 -2 -73 -2q-278 -1 -301 114zM614 1133 q0 -39 27 -67t68 -28q39 0 66.5 28t27.5 67t-27.5 67.5t-66.5 28.5q-41 0 -68 -28.5t-27 -67.5z" />
<glyph unicode="&#xdb;" horiz-adv-x="1865" d="M1200 3059q0 -109 59.5 -195.5t153.5 -123.5q-158 -166 -158 -375q0 -250 214 -427t517 -177t517.5 177t214.5 427q0 201 -148 363q106 29 177 121t71 210q0 141 -96.5 240.5t-231.5 99.5t-231 -99t-96 -241q0 -57 18 -112q-98 23 -195 22q-74 0 -147 -12q14 49 14 102 q0 141 -95 240.5t-230 99.5t-231.5 -99.5t-96.5 -240.5zM1509 2496q0 43 31 73t72 30q43 0 72.5 -30t29.5 -73q0 -41 -29.5 -71.5t-72.5 -30.5q-41 0 -72 30.5t-31 71.5zM1702 2244l123 41q37 -104 159 -104q127 0 164 94h-2l123 -43q-16 -47 -61 -94q-86 -88 -224 -88 q-115 0 -198 73q-64 53 -84 121zM2253 2496q0 43 29.5 73t72.5 30q41 0 70.5 -30t29.5 -73q0 -41 -29.5 -71.5t-70.5 -30.5q-43 0 -72.5 30.5t-29.5 71.5zM25 1034q25 104 333 125q49 195 238 254q67 22 139 22q21 0 41 -1q121 -8 201 -119q72 -102 72 -228 q0 -164 -125 -247l659 -52l-6 11q25 -4 49 -4q106 0 195 88q-31 -162 -84 -224v-22q0 -291 -209 -438q-190 -133 -518 -133q-240 0 -445 94q-262 119 -262 329q0 168 205 310q-2 14 -109 123q-39 -2 -73 -2q-278 -1 -301 114zM614 1133q0 -39 27 -67t68 -28q39 0 66.5 28 t27.5 67t-27.5 67.5t-66.5 28.5q-41 0 -68 -28.5t-27 -67.5z" />
<glyph unicode="&#xe0;" d="M479 2537l539 -323l362 592l365 -592l499 305l-123 -629h-1495zM563 2971l119 109l215 -238l-121 -106zM653 1628v135h1442v-135h-1442zM1278 3266h162v-319h-160zM1886 2824l205 244l123 -103l-205 -245zM33 221q82 90 151 221q84 158 107 187q86 111 280 151 q-2 35 -2 43q0 285 199 483.5t483 198.5q285 0 482.5 -198.5t197.5 -483.5q0 -283 -198.5 -481.5t-481.5 -198.5q-182 0 -337.5 89.5t-249.5 244.5q-54 7 -94 7q-16 0 -29 -1q-57 -4 -138 -34q-175 -68 -370 -228zM831 975q0 -47 33 -81t80 -34t81 34t34 81t-34 81t-81 34 t-80 -34t-33 -81zM1053 694q43 -168 256 -180q231 14 262 180h-518zM1528 1030q0 -47 33.5 -79.5t80.5 -32.5t80 32.5t33 79.5t-32.5 81t-80.5 34q-47 0 -80.5 -34t-33.5 -81z" />
<glyph unicode="&#xe2;" d="M1518 2926q0 -109 59.5 -195.5t153.5 -123.5q-158 -166 -158 -375q0 -250 214 -427t517 -177t517.5 177t214.5 427q0 201 -148 363q106 29 177 121t71 210q0 141 -96.5 240.5t-231.5 99.5t-231 -99t-96 -241q0 -57 18 -112q-98 23 -195 22q-74 0 -147 -12q14 49 14 102 q0 141 -95 240.5t-230 99.5t-231.5 -99.5t-96.5 -240.5zM1827 2363q0 43 31 73t72 30q43 0 72.5 -30t29.5 -73q0 -41 -29.5 -71.5t-72.5 -30.5q-41 0 -72 30.5t-31 71.5zM2020 2111l123 41q37 -104 159 -104q127 0 164 94h-2l123 -43q-16 -47 -61 -94q-86 -88 -224 -88 q-115 0 -198 73q-64 53 -84 121zM2571 2363q0 43 29.5 73t72.5 30q41 0 70.5 -30t29.5 -73q0 -41 -29.5 -71.5t-70.5 -30.5q-43 0 -72.5 30.5t-29.5 71.5zM33 221q82 90 151 221q84 158 107 187q86 111 280 151q-2 35 -2 43q0 285 199 483.5t483 198.5q285 0 482.5 -198.5 t197.5 -483.5q0 -283 -198.5 -481.5t-481.5 -198.5q-182 0 -337.5 89.5t-249.5 244.5q-54 7 -94 7q-16 0 -29 -1q-57 -4 -138 -34q-175 -68 -370 -228zM831 975q0 -47 33 -81t80 -34t81 34t34 81t-34 81t-81 34t-80 -34t-33 -81zM1053 694q43 -168 256 -180q231 14 262 180 h-518zM1528 1030q0 -47 33.5 -79.5t80.5 -32.5t80 32.5t33 79.5t-32.5 81t-80.5 34q-47 0 -80.5 -34t-33.5 -81z" />
<glyph unicode="&#xe3;" d="M463 1872l156 76q63 -125 188 -125q29 0 47 4q137 31 189 148q-141 -14 -170 -15q-55 0 -129 21q-98 25 -99 65q0 31 101 101q125 84 155 133l119 188q88 131 209 209q158 100 363 101q168 0 321 -119q86 -66 232 -236q127 -150 194 -182q199 -100 199 -162 q0 -33 -45 -69q-61 -49 -293 -37q88 -147 219 -148q61 0 129 31q90 41 90 147q0 145 -135 375q-25 -2 -16 -2q-102 0 -175 71.5t-73 174.5q0 102 72.5 174t175.5 72q102 0 173.5 -72t71.5 -174q0 -100 -71 -172q150 -256 149 -447q0 -219 -190 -305q-104 -47 -201 -47 q-203 0 -342 193q-43 59 -64 112l50 19q-84 -2 -172 -41q25 -70 94 -234l-158 -67q-76 176 -102 247q-39 -4 -76 -4q-92 0 -158 21q-31 -145 -112 -268l-144 96q70 104 90 229q-80 23 -147 27l45 -10q-12 -66 -61 -136q-94 -135 -269 -176q-43 -10 -86 -10 q-106 0 -201.5 62.5t-142.5 160.5zM1121 2321q0 -68 46 -114t113 -46q68 0 114 46t46 114q0 66 -47 113t-113 47q-68 0 -113.5 -46t-45.5 -114zM1225 2309q0 61 59 61t60 -61q0 -59 -60 -60q-59 1 -59 60zM1702 2315q0 -68 46 -114t114 -46t114 46t46 114q0 66 -47.5 112.5 t-112.5 46.5q-66 0 -113 -46.5t-47 -112.5zM1800 2309q0 61 60 61q59 0 59 -61q0 -59 -59 -60q-60 1 -60 60zM2018 2847l120 125l119 -117l-121 -123zM2308 3040l164 51l43 -141l-166 -52zM2413 2622q0 -31 21.5 -52.5t52.5 -21.5t51 21.5t20 52.5t-20.5 52.5t-50.5 21.5 q-31 0 -52.5 -21.5t-21.5 -52.5zM2624 2939l104 121l131 -112l-104 -121zM33 221q82 90 151 221q84 158 107 187q86 111 280 151q-2 35 -2 43q0 285 199 483.5t483 198.5q285 0 482.5 -198.5t197.5 -483.5q0 -283 -198.5 -481.5t-481.5 -198.5q-182 0 -337.5 89.5 t-249.5 244.5q-54 7 -94 7q-16 0 -29 -1q-57 -4 -138 -34q-175 -68 -370 -228zM831 975q0 -47 33 -81t80 -34t81 34t34 81t-34 81t-81 34t-80 -34t-33 -81zM1053 694q43 -168 256 -180q231 14 262 180h-518zM1528 1030q0 -47 33.5 -79.5t80.5 -32.5t80 32.5t33 79.5 t-32.5 81t-80.5 34q-47 0 -80.5 -34t-33.5 -81z" />
<glyph unicode="&#xe8;" horiz-adv-x="1591" d="M-279 2482l539 -323l362 592l365 -592l499 305l-123 -629h-1495zM-195 2916l119 109l215 -238l-121 -106zM-105 1573v135h1442v-135h-1442zM520 3211h162v-319h-160zM1128 2769l205 244l123 -103l-205 -245zM6 750q0 238 135 428t353 272q-109 -160 -109 -350 q0 -301 236 -488l86 111l112 -90l-76 -96q59 -29 125 -43q2 -51 -20 -82q-41 -57 -164 -60v-106q215 2 274 145q16 39 17 88q35 -2 31 -2q309 0 495 248q-8 -301 -225 -513t-522 -212q-309 0 -528.5 220.5t-219.5 529.5zM319 543q0 -39 28 -66.5t67 -27.5t66.5 27.5 t27.5 66.5t-27.5 67.5t-66.5 28.5t-67 -28.5t-28 -67.5z" />
<glyph unicode="&#xea;" horiz-adv-x="1591" d="M760 2871q0 -109 59.5 -195.5t153.5 -123.5q-158 -166 -158 -375q0 -250 214 -427t517 -177t517.5 177t214.5 427q0 201 -148 363q106 29 177 121t71 210q0 141 -96.5 240.5t-231.5 99.5t-231 -99t-96 -241q0 -57 18 -112q-98 23 -195 22q-74 0 -147 -12q14 49 14 102 q0 141 -95 240.5t-230 99.5t-231.5 -99.5t-96.5 -240.5zM1069 2308q0 43 31 73t72 30q43 0 72.5 -30t29.5 -73q0 -41 -29.5 -71.5t-72.5 -30.5q-41 0 -72 30.5t-31 71.5zM1262 2056l123 41q37 -104 159 -104q127 0 164 94h-2l123 -43q-16 -47 -61 -94q-86 -88 -224 -88 q-115 0 -198 73q-64 53 -84 121zM1813 2308q0 43 29.5 73t72.5 30q41 0 70.5 -30t29.5 -73q0 -41 -29.5 -71.5t-70.5 -30.5q-43 0 -72.5 30.5t-29.5 71.5zM6 750q0 238 135 428t353 272q-109 -160 -109 -350q0 -301 236 -488l86 111l112 -90l-76 -96q59 -29 125 -43 q2 -51 -20 -82q-41 -57 -164 -60v-106q215 2 274 145q16 39 17 88q35 -2 31 -2q309 0 495 248q-8 -301 -225 -513t-522 -212q-309 0 -528.5 220.5t-219.5 529.5zM319 543q0 -39 28 -66.5t67 -27.5t66.5 27.5t27.5 66.5t-27.5 67.5t-66.5 28.5t-67 -28.5t-28 -67.5z" />
<glyph unicode="&#xec;" horiz-adv-x="2033" d="M-387 2463l539 -323l362 592l365 -592l499 305l-123 -629h-1495zM-303 2897l119 109l215 -238l-121 -106zM-213 1554v135h1442v-135h-1442zM412 3192h162v-319h-160zM1020 2750l205 244l123 -103l-205 -245zM10 365l8 327q2 76 66 111l78 414q23 88 86 137q49 37 100 43 h4l885 -2q98 -12 152 -78q41 -49 47 -113l82 -346l307 -22q53 -4 91 -40t38 -89v-342q0 -55 -38 -93.5t-91 -38.5h-150q-14 -98 -89 -163.5t-175 -65.5t-175 65.5t-87 163.5h-434q-12 -98 -87 -163.5t-175 -65.5t-175 65.5t-88 163.5h-49q-55 0 -93 39.5t-38 92.5zM274 827 l445 4v383h-350q-23 -10 -29 -40zM340 266q0 -47 34 -80.5t81 -33.5t80.5 33.5t33.5 80.5t-33.5 81t-80.5 34t-81 -34t-34 -81zM903 831h432l-82 359q-2 18 -34 24h-316v-383zM1294 270q0 -47 34 -80.5t81 -33.5q49 0 82 33.5t33 80.5t-33 81t-82 34q-47 0 -81 -34t-34 -81z " />
<glyph unicode="&#xee;" horiz-adv-x="2033" d="M649 2852q0 -109 59.5 -195.5t153.5 -123.5q-158 -166 -158 -375q0 -250 214 -427t517 -177t517.5 177t214.5 427q0 201 -148 363q106 29 177 121t71 210q0 141 -96.5 240.5t-231.5 99.5t-231 -99t-96 -241q0 -57 18 -112q-98 23 -195 22q-74 0 -147 -12q14 49 14 102 q0 141 -95 240.5t-230 99.5t-231.5 -99.5t-96.5 -240.5zM958 2289q0 43 31 73t72 30q43 0 72.5 -30t29.5 -73q0 -41 -29.5 -71.5t-72.5 -30.5q-41 0 -72 30.5t-31 71.5zM1151 2037l123 41q37 -104 159 -104q127 0 164 94h-2l123 -43q-16 -47 -61 -94q-86 -88 -224 -88 q-115 0 -198 73q-64 53 -84 121zM1702 2289q0 43 29.5 73t72.5 30q41 0 70.5 -30t29.5 -73q0 -41 -29.5 -71.5t-70.5 -30.5q-43 0 -72.5 30.5t-29.5 71.5zM10 365l8 327q2 76 66 111l78 414q23 88 86 137q49 37 100 43h4l885 -2q98 -12 152 -78q41 -49 47 -113l82 -346 l307 -22q53 -4 91 -40t38 -89v-342q0 -55 -38 -93.5t-91 -38.5h-150q-14 -98 -89 -163.5t-175 -65.5t-175 65.5t-87 163.5h-434q-12 -98 -87 -163.5t-175 -65.5t-175 65.5t-88 163.5h-49q-55 0 -93 39.5t-38 92.5zM274 827l445 4v383h-350q-23 -10 -29 -40zM340 266 q0 -47 34 -80.5t81 -33.5t80.5 33.5t33.5 80.5t-33.5 81t-80.5 34t-81 -34t-34 -81zM903 831h432l-82 359q-2 18 -34 24h-316v-383zM1294 270q0 -47 34 -80.5t81 -33.5q49 0 82 33.5t33 80.5t-33 81t-82 34q-47 0 -81 -34t-34 -81z" />
<glyph unicode="&#xf1;" horiz-adv-x="1669" d="M667 1976l156 76q63 -125 188 -125q29 0 47 4q137 31 189 148q-141 -14 -170 -15q-55 0 -129 21q-98 25 -99 65q0 31 101 101q125 84 155 133l119 188q88 131 209 209q158 100 363 101q168 0 321 -119q86 -66 232 -236q127 -150 194 -182q199 -100 199 -162 q0 -33 -45 -69q-61 -49 -293 -37q88 -147 219 -148q61 0 129 31q90 41 90 147q0 145 -135 375q-25 -2 -16 -2q-102 0 -175 71.5t-73 174.5q0 102 72.5 174t175.5 72q102 0 173.5 -72t71.5 -174q0 -100 -71 -172q150 -256 149 -447q0 -219 -190 -305q-104 -47 -201 -47 q-203 0 -342 193q-43 59 -64 112l50 19q-84 -2 -172 -41q25 -70 94 -234l-158 -67q-76 176 -102 247q-39 -4 -76 -4q-92 0 -158 21q-31 -145 -112 -268l-144 96q70 104 90 229q-80 23 -147 27l45 -10q-12 -66 -61 -136q-94 -135 -269 -176q-43 -10 -86 -10 q-106 0 -201.5 62.5t-142.5 160.5zM1325 2425q0 -68 46 -114t113 -46q68 0 114 46t46 114q0 66 -47 113t-113 47q-68 0 -113.5 -46t-45.5 -114zM1429 2413q0 61 59 61t60 -61q0 -59 -60 -60q-59 1 -59 60zM1906 2419q0 -68 46 -114t114 -46t114 46t46 114q0 66 -47.5 112.5 t-112.5 46.5q-66 0 -113 -46.5t-47 -112.5zM2004 2413q0 61 60 61q59 0 59 -61q0 -59 -59 -60q-60 1 -60 60zM2222 2951l120 125l119 -117l-121 -123zM2512 3144l164 51l43 -141l-166 -52zM2617 2726q0 -31 21.5 -52.5t52.5 -21.5t51 21.5t20 52.5t-20.5 52.5t-50.5 21.5 q-31 0 -52.5 -21.5t-21.5 -52.5zM2828 3043l104 121l131 -112l-104 -121zM10 272l105 -67l100 153l-104 68zM80 1194q0 -115 95 -195.5t231 -80.5q29 0 59 4q16 -96 116.5 -162t235.5 -66q209 0 311 133q57 -18 117 -18q141 0 240.5 86t99.5 205q0 121 -99.5 207t-240.5 86 q-12 0 -31 -2q-41 90 -141 151q-106 68 -221 68q-96 0 -166 -58q-51 -39 -108 -125q-80 43 -172 43q-135 0 -230.5 -80.5t-95.5 -195.5zM188 575l103 -67l100 154l-102 67zM426 125l104 -66l101 154l-105 68zM612 434l105 -67l100 153l-104 68zM958 193l103 -68l100 156 l-102 65zM1126 483l103 -65l100 153l-102 68z" />
<glyph unicode="&#xf2;" horiz-adv-x="1716" d="M72 2463l539 -323l362 592l365 -592l499 305l-123 -629h-1495zM156 2897l119 109l215 -238l-121 -106zM246 1554v135h1442v-135h-1442zM871 3192h162v-319h-160zM1479 2750l205 244l123 -103l-205 -245zM160 999q0 80 37 136q43 66 118 65q82 0 136 -88q47 -76 47 -162 q0 -78 -37 -135q-45 -66 -119 -65q-80 0 -133 88q-49 77 -49 161zM424 408q0 145 149 241l-2 2q0 84 93 131q76 39 167 39q86 0 160 -37q90 -45 96 -120q174 -94 175 -256q0 -145 -142 -236q-123 -78 -276 -78q-154 0 -277 78q-143 91 -143 236zM651 1186q0 92 49 164 q55 82 144 82q86 0 141 -82q49 -72 49 -164q0 -90 -49 -162q-55 -82 -141 -82q-88 0 -144 80q-49 72 -49 164zM1184 961q0 127 80 206q55 55 118 56q76 0 119 -68q37 -57 37 -137q0 -127 -78 -207q-55 -55 -121 -55q-74 0 -116 67q-39 60 -39 138z" />
<glyph unicode="&#xf4;" horiz-adv-x="1716" d="M1110 2852q0 -109 59.5 -195.5t153.5 -123.5q-158 -166 -158 -375q0 -250 214 -427t517 -177t517.5 177t214.5 427q0 201 -148 363q106 29 177 121t71 210q0 141 -96.5 240.5t-231.5 99.5t-231 -99t-96 -241q0 -57 18 -112q-98 23 -195 22q-74 0 -147 -12q14 49 14 102 q0 141 -95 240.5t-230 99.5t-231.5 -99.5t-96.5 -240.5zM1419 2289q0 43 31 73t72 30q43 0 72.5 -30t29.5 -73q0 -41 -29.5 -71.5t-72.5 -30.5q-41 0 -72 30.5t-31 71.5zM1612 2037l123 41q37 -104 159 -104q127 0 164 94h-2l123 -43q-16 -47 -61 -94q-86 -88 -224 -88 q-115 0 -198 73q-64 53 -84 121zM2163 2289q0 43 29.5 73t72.5 30q41 0 70.5 -30t29.5 -73q0 -41 -29.5 -71.5t-70.5 -30.5q-43 0 -72.5 30.5t-29.5 71.5zM160 999q0 80 37 136q43 66 118 65q82 0 136 -88q47 -76 47 -162q0 -78 -37 -135q-45 -66 -119 -65q-80 0 -133 88 q-49 77 -49 161zM424 408q0 145 149 241l-2 2q0 84 93 131q76 39 167 39q86 0 160 -37q90 -45 96 -120q174 -94 175 -256q0 -145 -142 -236q-123 -78 -276 -78q-154 0 -277 78q-143 91 -143 236zM651 1186q0 92 49 164q55 82 144 82q86 0 141 -82q49 -72 49 -164 q0 -90 -49 -162q-55 -82 -141 -82q-88 0 -144 80q-49 72 -49 164zM1184 961q0 127 80 206q55 55 118 56q76 0 119 -68q37 -57 37 -137q0 -127 -78 -207q-55 -55 -121 -55q-74 0 -116 67q-39 60 -39 138z" />
<glyph unicode="&#xf5;" horiz-adv-x="1716" d="M55 1798l156 76q63 -125 188 -125q29 0 47 4q137 31 189 148q-141 -14 -170 -15q-55 0 -129 21q-98 25 -99 65q0 31 101 101q125 84 155 133l119 188q88 131 209 209q158 100 363 101q168 0 321 -119q86 -66 232 -236q127 -150 194 -182q199 -100 199 -162q0 -33 -45 -69 q-61 -49 -293 -37q88 -147 219 -148q61 0 129 31q90 41 90 147q0 145 -135 375q-25 -2 -16 -2q-102 0 -175 71.5t-73 174.5q0 102 72.5 174t175.5 72q102 0 173.5 -72t71.5 -174q0 -100 -71 -172q150 -256 149 -447q0 -219 -190 -305q-104 -47 -201 -47q-203 0 -342 193 q-43 59 -64 112l50 19q-84 -2 -172 -41q25 -70 94 -234l-158 -67q-76 176 -102 247q-39 -4 -76 -4q-92 0 -158 21q-31 -145 -112 -268l-144 96q70 104 90 229q-80 23 -147 27l45 -10q-12 -66 -61 -136q-94 -135 -269 -176q-43 -10 -86 -10q-106 0 -201.5 62.5t-142.5 160.5z M713 2247q0 -68 46 -114t113 -46q68 0 114 46t46 114q0 66 -47 113t-113 47q-68 0 -113.5 -46t-45.5 -114zM817 2235q0 61 59 61t60 -61q0 -59 -60 -60q-59 1 -59 60zM1294 2241q0 -68 46 -114t114 -46t114 46t46 114q0 66 -47.5 112.5t-112.5 46.5q-66 0 -113 -46.5 t-47 -112.5zM1392 2235q0 61 60 61q59 0 59 -61q0 -59 -59 -60q-60 1 -60 60zM1610 2773l120 125l119 -117l-121 -123zM1900 2966l164 51l43 -141l-166 -52zM2005 2548q0 -31 21.5 -52.5t52.5 -21.5t51 21.5t20 52.5t-20.5 52.5t-50.5 21.5q-31 0 -52.5 -21.5t-21.5 -52.5z M2216 2865l104 121l131 -112l-104 -121zM160 999q0 80 37 136q43 66 118 65q82 0 136 -88q47 -76 47 -162q0 -78 -37 -135q-45 -66 -119 -65q-80 0 -133 88q-49 77 -49 161zM424 408q0 145 149 241l-2 2q0 84 93 131q76 39 167 39q86 0 160 -37q90 -45 96 -120 q174 -94 175 -256q0 -145 -142 -236q-123 -78 -276 -78q-154 0 -277 78q-143 91 -143 236zM651 1186q0 92 49 164q55 82 144 82q86 0 141 -82q49 -72 49 -164q0 -90 -49 -162q-55 -82 -141 -82q-88 0 -144 80q-49 72 -49 164zM1184 961q0 127 80 206q55 55 118 56 q76 0 119 -68q37 -57 37 -137q0 -127 -78 -207q-55 -55 -121 -55q-74 0 -116 67q-39 60 -39 138z" />
<glyph unicode="&#xf9;" horiz-adv-x="1865" d="M350 2468l539 -323l362 592l365 -592l499 305l-123 -629h-1495zM434 2902l119 109l215 -238l-121 -106zM524 1559v135h1442v-135h-1442zM1149 3197h162v-319h-160zM1757 2755l205 244l123 -103l-205 -245zM37 883q31 -162 84 -224v-21q0 -291 211 -439q188 -133 516 -133 q240 0 444 94q262 119 262 329q0 168 -204 310q2 14 108 123q39 -2 74 -2q279 0 301 114q-25 104 -334 125q-49 195 -237 254q-67 22 -139 22q-21 0 -42 -1q-121 -8 -198 -119q-74 -102 -74 -228q0 -164 125 -247l-660 -52l7 11q-25 -4 -50 -4q-106 0 -194 88zM1057 1133 q0 39 27.5 67.5t66.5 28.5t66.5 -29t27.5 -67q0 -39 -27.5 -67t-66.5 -28t-66.5 28t-27.5 67z" />
<glyph unicode="&#xfb;" horiz-adv-x="1865" d="M1389 2857q0 -109 59.5 -195.5t153.5 -123.5q-158 -166 -158 -375q0 -250 214 -427t517 -177t517.5 177t214.5 427q0 201 -148 363q106 29 177 121t71 210q0 141 -96.5 240.5t-231.5 99.5t-231 -99t-96 -241q0 -57 18 -112q-98 23 -195 22q-74 0 -147 -12q14 49 14 102 q0 141 -95 240.5t-230 99.5t-231.5 -99.5t-96.5 -240.5zM1698 2294q0 43 31 73t72 30q43 0 72.5 -30t29.5 -73q0 -41 -29.5 -71.5t-72.5 -30.5q-41 0 -72 30.5t-31 71.5zM1891 2042l123 41q37 -104 159 -104q127 0 164 94h-2l123 -43q-16 -47 -61 -94q-86 -88 -224 -88 q-115 0 -198 73q-64 53 -84 121zM2442 2294q0 43 29.5 73t72.5 30q41 0 70.5 -30t29.5 -73q0 -41 -29.5 -71.5t-70.5 -30.5q-43 0 -72.5 30.5t-29.5 71.5zM37 883q31 -162 84 -224v-21q0 -291 211 -439q188 -133 516 -133q240 0 444 94q262 119 262 329q0 168 -204 310 q2 14 108 123q39 -2 74 -2q279 0 301 114q-25 104 -334 125q-49 195 -237 254q-67 22 -139 22q-21 0 -42 -1q-121 -8 -198 -119q-74 -102 -74 -228q0 -164 125 -247l-660 -52l7 11q-25 -4 -50 -4q-106 0 -194 88zM1057 1133q0 39 27.5 67.5t66.5 28.5t66.5 -29t27.5 -67 q0 -39 -27.5 -67t-66.5 -28t-66.5 28t-27.5 67z" />
<glyph unicode="&#x152;" horiz-adv-x="3184" d="M1591 733q10 -303 227 -514t520 -211q311 0 530.5 219t219.5 529q0 238 -135 429t-352 271q109 -158 108 -350q0 -299 -235 -488l-88 111l-113 -90l78 -96q-61 -29 -125 -43q-2 -51 20 -82q41 -57 164 -58l-2 -108q-215 2 -272 145q-16 41 -19 88q-35 0 -28 0 q-310 0 -498 248zM2584 549q0 41 28 68.5t68 27.5q39 0 67 -27.5t28 -68.5q0 -39 -28 -66.5t-67 -27.5q-41 0 -68.5 27.5t-27.5 66.5zM0 621l217 -160q-33 -70 -33 -156q2 -207 244 -305h641q254 109 254 332q2 68 -31 129l226 160l-70 100l-231 -162q-14 14 -58 45 q111 92 119 250q0 141 -94 250l100 420l-346 114l-242 -354q-213 -12 -356 -134t-139 -300q4 -49 18 -92q37 -104 121 -170q-20 -8 -47 -31l-219 162zM367 973q0 37 26.5 63.5t63.5 26.5q39 0 65.5 -26.5t26.5 -63.5t-26.5 -63.5t-65.5 -26.5q-37 0 -63.5 26.5t-26.5 63.5z M590 655v123h293v-123h-293zM883 963q0 37 26.5 63.5t63.5 26.5q39 0 65.5 -27t26.5 -63q0 -37 -26.5 -64t-65.5 -27q-37 0 -63.5 27t-26.5 64z" />
<glyph unicode="&#x153;" horiz-adv-x="3307" d="M1722 750q0 238 135 428t353 272q-109 -160 -109 -350q0 -301 236 -488l86 111l112 -90l-76 -96q59 -29 125 -43q2 -51 -20 -82q-41 -57 -164 -60v-106q215 2 274 145q16 39 17 88q35 -2 31 -2q309 0 495 248q-8 -301 -225 -513t-522 -212q-309 0 -528.5 220.5 t-219.5 529.5zM2035 543q0 -39 28 -66.5t67 -27.5t66.5 27.5t27.5 66.5t-27.5 67.5t-66.5 28.5t-67 -28.5t-28 -67.5zM160 999q0 80 37 136q43 66 118 65q82 0 136 -88q47 -76 47 -162q0 -78 -37 -135q-45 -66 -119 -65q-80 0 -133 88q-49 77 -49 161zM424 408 q0 145 149 241l-2 2q0 84 93 131q76 39 167 39q86 0 160 -37q90 -45 96 -120q174 -94 175 -256q0 -145 -142 -236q-123 -78 -276 -78q-154 0 -277 78q-143 91 -143 236zM651 1186q0 92 49 164q55 82 144 82q86 0 141 -82q49 -72 49 -164q0 -90 -49 -162q-55 -82 -141 -82 q-88 0 -144 80q-49 72 -49 164zM1184 961q0 127 80 206q55 55 118 56q76 0 119 -68q37 -57 37 -137q0 -127 -78 -207q-55 -55 -121 -55q-74 0 -116 67q-39 60 -39 138z" />
<glyph unicode="&#x2c6;" horiz-adv-x="1697" d="M0 1298q0 -109 59.5 -195.5t153.5 -123.5q-158 -166 -158 -375q0 -250 214 -427t517 -177t517.5 177t214.5 427q0 201 -148 363q106 29 177 121t71 210q0 141 -96.5 240.5t-231.5 99.5t-231 -99t-96 -241q0 -57 18 -112q-98 23 -195 22q-74 0 -147 -12q14 49 14 102 q0 141 -95 240.5t-230 99.5t-231.5 -99.5t-96.5 -240.5zM309 735q0 43 31 73t72 30q43 0 72.5 -30t29.5 -73q0 -41 -29.5 -71.5t-72.5 -30.5q-41 0 -72 30.5t-31 71.5zM502 483l123 41q37 -104 159 -104q127 0 164 94h-2l123 -43q-16 -47 -61 -94q-86 -88 -224 -88 q-115 0 -198 73q-64 53 -84 121zM1053 735q0 43 29.5 73t72.5 30q41 0 70.5 -30t29.5 -73q0 -41 -29.5 -71.5t-70.5 -30.5q-43 0 -72.5 30.5t-29.5 71.5z" />
<glyph unicode="&#x2dc;" horiz-adv-x="2048" d="M-789 366l156 76q63 -125 188 -125q29 0 47 4q137 31 189 148q-141 -14 -170 -15q-55 0 -129 21q-98 25 -99 65q0 31 101 101q125 84 155 133l119 188q88 131 209 209q158 100 363 101q168 0 321 -119q86 -66 232 -236q127 -150 194 -182q199 -100 199 -162 q0 -33 -45 -69q-61 -49 -293 -37q88 -147 219 -148q61 0 129 31q90 41 90 147q0 145 -135 375q-25 -2 -16 -2q-102 0 -175 71.5t-73 174.5q0 102 72.5 174t175.5 72q102 0 173.5 -72t71.5 -174q0 -100 -71 -172q150 -256 149 -447q0 -219 -190 -305q-104 -47 -201 -47 q-203 0 -342 193q-43 59 -64 112l50 19q-84 -2 -172 -41q25 -70 94 -234l-158 -67q-76 176 -102 247q-39 -4 -76 -4q-92 0 -158 21q-31 -145 -112 -268l-144 96q70 104 90 229q-80 23 -147 27l45 -10q-12 -66 -61 -136q-94 -135 -269 -176q-43 -10 -86 -10 q-106 0 -201.5 62.5t-142.5 160.5zM-131 815q0 -68 46 -114t113 -46q68 0 114 46t46 114q0 66 -47 113t-113 47q-68 0 -113.5 -46t-45.5 -114zM-27 803q0 61 59 61t60 -61q0 -59 -60 -60q-59 1 -59 60zM450 809q0 -68 46 -114t114 -46t114 46t46 114q0 66 -47.5 112.5 t-112.5 46.5q-66 0 -113 -46.5t-47 -112.5zM548 803q0 61 60 61q59 0 59 -61q0 -59 -59 -60q-60 1 -60 60zM766 1341l120 125l119 -117l-121 -123zM1056 1534l164 51l43 -141l-166 -52zM1161 1116q0 -31 21.5 -52.5t52.5 -21.5t51 21.5t20 52.5t-20.5 52.5t-50.5 21.5 q-31 0 -52.5 -21.5t-21.5 -52.5zM1372 1433l104 121l131 -112l-104 -121z" />
<glyph unicode="&#x2000;" horiz-adv-x="1699" />
<glyph unicode="&#x2001;" horiz-adv-x="3399" />
<glyph unicode="&#x2002;" horiz-adv-x="1699" />
<glyph unicode="&#x2003;" horiz-adv-x="3399" />
<glyph unicode="&#x2004;" horiz-adv-x="1132" />
<glyph unicode="&#x2005;" horiz-adv-x="849" />
<glyph unicode="&#x2006;" horiz-adv-x="565" />
<glyph unicode="&#x2007;" horiz-adv-x="565" />
<glyph unicode="&#x2008;" horiz-adv-x="423" />
<glyph unicode="&#x2009;" horiz-adv-x="679" />
<glyph unicode="&#x200a;" horiz-adv-x="188" />
<glyph unicode="&#x2010;" horiz-adv-x="1400" d="M227 813q213 0 344 180q115 160 115 383q0 -223 115 -383q131 -180 344 -180q-213 0 -344 -180q-115 -160 -115 -383q0 223 -115 383q-131 180 -344 180z" />
<glyph unicode="&#x2011;" horiz-adv-x="1400" d="M227 813q213 0 344 180q115 160 115 383q0 -223 115 -383q131 -180 344 -180q-213 0 -344 -180q-115 -160 -115 -383q0 223 -115 383q-131 180 -344 180z" />
<glyph unicode="&#x2012;" horiz-adv-x="1400" d="M227 813q213 0 344 180q115 160 115 383q0 -223 115 -383q131 -180 344 -180q-213 0 -344 -180q-115 -160 -115 -383q0 223 -115 383q-131 180 -344 180z" />
<glyph unicode="&#x2013;" horiz-adv-x="1024" d="M205 512v205h614v-205h-614z" />
<glyph unicode="&#x2014;" horiz-adv-x="2048" d="M205 512v205h1638v-205h-1638z" />
<glyph unicode="&#x2018;" horiz-adv-x="1855" d="M0 909l539 -323l362 592l365 -592l499 305l-123 -629h-1495zM84 1343l119 109l215 -238l-121 -106zM174 0v135h1442v-135h-1442zM799 1638h162v-319h-160zM1407 1196l205 244l123 -103l-205 -245z" />
<glyph unicode="&#x2019;" horiz-adv-x="1988" d="M14 573q0 33 11 76q41 174 129 303q-121 94 -121 250q0 131 90 224.5t221 93.5q113 0 198 -73t105 -183q115 25 242 24q88 0 174 -16q25 106 108.5 173.5t192.5 67.5q129 0 219 -92t90 -223q0 -123 -82 -215q166 -188 166 -387q0 -274 -311 -442q-258 -141 -557 -142 q-289 0 -553 135q-322 164 -322 426zM227 1225q0 -45 31 -76t76 -31t74.5 31t29.5 76q0 43 -30.5 73.5t-73.5 30.5q-45 0 -76 -29.5t-31 -74.5zM358 545q35 -61 123 -121q168 -115 414 -115q250 0 399 123q78 66 105 131l-92 37q-20 -49 -84 -98q-123 -94 -328 -94 q-211 0 -350 90q-72 47 -103 96l-4 8zM1260 1206q0 -45 29.5 -75.5t74.5 -30.5t75.5 30.5t30.5 75.5t-30.5 75t-75.5 30q-43 0 -73.5 -31t-30.5 -74z" />
<glyph unicode="&#x201c;" horiz-adv-x="1808" d="M0 946q0 180 147 283q90 61 199 61q80 0 156 -37v4q-2 23 -2 43q0 129 90 226.5t219 109.5q143 14 254 -74.5t125 -232.5q6 -55 -4 -106q86 59 192 59q143 0 244.5 -101.5t101.5 -244.5q0 -139 -93 -237.5t-232 -108.5q102 -100 102 -244q0 -145 -100.5 -245.5 t-245.5 -100.5q-150 0 -252 111q-43 47 -67 104q-31 -63 -80 -111q-98 -92 -236 -92q-145 0 -245.5 100.5t-100.5 245.5t107 248q-123 25 -201 120t-78 220zM524 795q0 -125 89 -214t214 -89t214 89t89 214t-89 214t-214 89t-214 -89t-89 -214z" />
<glyph unicode="&#x201d;" horiz-adv-x="1808" d="M0 946q0 180 147 283q90 61 199 61q80 0 156 -37v4q-2 23 -2 43q0 129 90 226.5t219 109.5q143 14 254 -74.5t125 -232.5q6 -55 -4 -106q86 59 192 59q143 0 244.5 -101.5t101.5 -244.5q0 -139 -93 -237.5t-232 -108.5q102 -100 102 -244q0 -145 -100.5 -245.5 t-245.5 -100.5q-150 0 -252 111q-43 47 -67 104q-31 -63 -80 -111q-98 -92 -236 -92q-145 0 -245.5 100.5t-100.5 245.5t107 248q-123 25 -201 120t-78 220zM524 795q0 -125 89 -214t214 -89t214 89t89 214t-89 214t-214 89t-214 -89t-89 -214z" />
<glyph unicode="&#x2026;" horiz-adv-x="4730" d="M3314 485q0 35 25.5 60.5t60.5 25.5q41 0 67 -32q137 -172 361 -181q215 -8 375 164q135 145 129 342q-6 199 -152 334q-106 98 -250 94q-141 -4 -241 -110q-72 -76 -68 -178q4 -104 78 -175q47 -45 119 -45q63 0 109 37t44 99q0 45 -35 77q-27 39 -26 64q0 37 24.5 61.5 t61.5 24.5q35 0 59 -25q25 -37 43 -69q45 -80 47 -129q4 -115 -78 -203q-102 -109 -249 -109q-137 0 -236 93q-127 119 -133 292q-6 174 113 301q150 160 362 166q215 6 375 -141q195 -182 205 -453q10 -272 -174 -467q-215 -227 -508 -217q-301 12 -488 246q-20 35 -20 53z M1737 485q0 35 25.5 60.5t60.5 25.5q41 0 67 -32q137 -172 361 -181q215 -8 375 164q135 145 129 342q-6 199 -152 334q-106 98 -250 94q-141 -4 -241 -110q-72 -76 -68 -178q4 -104 78 -175q47 -45 119 -45q63 0 109 37t44 99q0 45 -35 77q-27 39 -26 64q0 37 24.5 61.5 t61.5 24.5q35 0 59 -25q25 -37 43 -69q45 -80 47 -129q4 -115 -78 -203q-102 -109 -249 -109q-137 0 -236 93q-127 119 -133 292q-6 174 113 301q150 160 362 166q215 6 375 -141q195 -182 205 -453q10 -272 -174 -467q-215 -227 -508 -217q-301 12 -488 246q-20 35 -20 53z M160 485q0 35 25.5 60.5t60.5 25.5q41 0 67 -32q137 -172 361 -181q215 -8 375 164q135 145 129 342q-6 199 -152 334q-106 98 -250 94q-141 -4 -241 -110q-72 -76 -68 -178q4 -104 78 -175q47 -45 119 -45q63 0 109 37t44 99q0 45 -35 77q-27 39 -26 64q0 37 24.5 61.5 t61.5 24.5q35 0 59 -25q25 -37 43 -69q45 -80 47 -129q4 -115 -78 -203q-102 -109 -249 -109q-137 0 -236 93q-127 119 -133 292q-6 174 113 301q150 160 362 166q215 6 375 -141q195 -182 205 -453q10 -272 -174 -467q-215 -227 -508 -217q-301 12 -488 246q-20 35 -20 53z " />
<glyph unicode="&#x202f;" horiz-adv-x="679" />
<glyph unicode="&#x2039;" horiz-adv-x="1341" d="M0 883q0 -162 82 -367q88 -223 223 -360q158 -162 338 -156q256 10 457 332q178 285 178 540q0 86 -29 132q-82 127 -233 178q-129 43 -363 43q-545 0 -637 -234q-16 -40 -16 -108zM92 1540q6 4 19 4q78 0 278 -104q4 176 51 198q18 -2 45 -20q66 -43 168 -160 q166 166 242 174q33 -6 33 -71q0 -49 -21 -127q201 104 287 104q12 0 16 -2t4 -6q0 -51 -337 -244q-66 12 -246 14q-82 0 -221 -18q-338 215 -318 258zM197 936q0 55 65 59q66 -4 66 -59q0 -51 -66 -141q-65 90 -65 141zM373 578q0 43 53 57q78 8 78 -66q0 -49 -41 -133 q-90 87 -90 142zM584 944q0 55 65 60q66 -4 66 -60q0 -51 -66 -141q-65 90 -65 141zM786 567q0 68 74 62q57 -10 58 -58q0 -53 -84 -141q-48 86 -48 137zM952 936q0 55 66 59q66 -4 65 -59q0 -53 -65 -141q-66 88 -66 141z" />
<glyph unicode="&#x203a;" horiz-adv-x="1576" d="M217 877q10 270 207 454q158 147 373 139t362 -163q121 -129 115 -303q-4 -174 -133 -293q-98 -92 -236 -93q-150 0 -252 109q-80 86 -75 205q2 72 90 196q25 25 57 25q37 0 62.5 -24.5t25.5 -61.5q0 -25 -30.5 -60.5t-32.5 -80.5q-2 -47 30 -82q49 -53 125 -53 q66 0 117 47q76 70 78 172q4 104 -66 178q-98 104 -243 110q-143 4 -250 -94q-143 -135 -152 -334q-6 -195 129 -342q160 -172 375 -163q223 8 360 180q27 33 68 33q35 0 60.5 -26t25.5 -60q0 -18 -18 -54q-188 -233 -490 -245q-293 -10 -506 217q-184 199 -176 467z" />
<glyph unicode="&#x205f;" horiz-adv-x="849" />
<glyph unicode="&#x2122;" horiz-adv-x="3575" d="M1929 729v148h252v-148h-252zM2093 1286l104 105l178 -181l-104 -104zM2101 324l178 180l104 -105l-178 -180zM2367 809q0 131 90 222t221 91t222.5 -91t91.5 -222t-91.5 -222t-222.5 -91q-129 0 -220 92t-91 221zM2598 1309v254h148v-254h-148zM2611 55v254h149v-254 h-149zM2975 1221l178 178l105 -105l-178 -180zM2983 408l105 104l178 -178l-104 -107zM3178 741v150h252v-150h-252zM0 1446l68 -107l204 129l39 -129q-115 -49 -184.5 -146t-69.5 -214q0 -166 131 -282.5t318 -116.5q59 0 121 16q6 -37 18 -74q-139 -113 -268 -116 q-5 0 -9 -1q-126 0 -233 111l-90 -90q144 -146 321 -146q7 0 15 1q162 4 326 129q12 -12 28 -25l-141 -240l108 -63l152 258q23 -2 43 -2q106 0 154 74q33 -41 82 -82v-301h124v213q61 -33 123 -45l154 -197l98 78l-86 110q133 12 207 91q66 70 66 167q0 119 -111 197 q-106 77 -273 77q-20 0 -40 -1q-180 -8 -322 -182q-12 76 -77.5 134t-141.5 58q98 111 98 250q0 123 -74.5 222t-197.5 145l41 137l188 -119l68 106l-258 162q-16 10 -34 10q-11 0 -21 -4q-29 -10 -39 -41l-68 -223q-29 4 -51 4q-35 0 -74 -6l-63 213q-10 29 -39 41 q-29 10 -56 -6zM203 1094q0 39 26.5 65.5t63.5 26.5q39 0 65.5 -26.5t26.5 -65.5q0 -37 -26.5 -63.5t-65.5 -26.5q-37 0 -63.5 26.5t-26.5 63.5zM338 872h229q-18 -90 -118 -96q-27 2 -50 12q-49 25 -61 84zM616 1077q0 39 27 65.5t64 26.5q39 0 65.5 -26.5t26.5 -65.5 q0 -37 -27 -63.5t-65 -26.5q-37 0 -64 26.5t-27 63.5z" />
<glyph unicode="&#xe000;" horiz-adv-x="1640" d="M0 1640h1640v-1640h-1640v1640z" />
<glyph unicode="&#xfb01;" horiz-adv-x="3297" d="M1274 365l8 327q2 76 66 111l78 414q23 88 86 137q49 37 100 43h4l885 -2q98 -12 152 -78q41 -49 47 -113l82 -346l307 -22q53 -4 91 -40t38 -89v-342q0 -55 -38 -93.5t-91 -38.5h-150q-14 -98 -89 -163.5t-175 -65.5t-175 65.5t-87 163.5h-434q-12 -98 -87 -163.5 t-175 -65.5t-175 65.5t-88 163.5h-49q-55 0 -93 39.5t-38 92.5zM1538 827l445 4v383h-350q-23 -10 -29 -40zM1604 266q0 -47 34 -80.5t81 -33.5t80.5 33.5t33.5 80.5t-33.5 81t-80.5 34t-81 -34t-34 -81zM2167 831h432l-82 359q-2 18 -34 24h-316v-383zM2558 270 q0 -47 34 -80.5t81 -33.5q49 0 82 33.5t33 80.5t-33 81t-82 34q-47 0 -81 -34t-34 -81zM0 326q0 -72 61 -115l263 -184q39 -27 84 -27q63 0 98 49l561 795q20 29 20 65q0 72 -63 115l-195 137l103 146q12 18 12 34q0 24 -26 43q-18 12 -35 13q-23 0 -41 -27l-105 -147 q-29 12 -57 12q-66 0 -98 -49l-562 -795q-20 -28 -20 -65zM160 463l10 12q14 20 32 21q13 0 27 -11l13 -8q20 -14 20 -32q0 -13 -10 -27l-10 -12q-14 -20 -33 -21q-13 0 -27 10l-12 8q-20 14 -20 33q0 13 10 27zM252 592l8 12q14 20 32 21q13 0 27 -11l13 -8q20 -14 20 -32 q0 -13 -10 -27l-8 -12q-14 -20 -33 -21q-13 0 -27 10l-12 8q-20 14 -20 33q0 13 10 27zM299 367l8 10q15 21 34 21q12 0 26 -9l12 -10q20 -14 20 -32q0 -13 -10 -28l-8 -12q-14 -20 -32 -20q-13 0 -27 10l-13 10q-20 13 -20 32q0 13 10 28zM342 719l8 12q14 20 33 21 q13 0 27 -11l12 -8q20 -14 20 -32q0 -13 -10 -27l-8 -12q-14 -20 -32 -21q-13 0 -27 10l-13 8q-20 14 -20 33q0 13 10 27zM389 494l10 12q14 20 33 20q13 0 27 -10l12 -8q20 -14 20 -32q0 -13 -10 -27l-10 -13q-14 -20 -32 -20q-13 0 -27 10l-13 8q-20 14 -20 33q0 13 10 27 zM440 266l11 13q14 20 32 20q13 0 27 -10l12 -10q20 -13 21 -32q0 -13 -11 -28l-10 -12q-13 -20 -31 -21q-13 0 -28 11l-10 10q-21 15 -22 33q0 12 9 26zM479 623l10 12q14 20 33 20q13 0 27 -10l12 -8q20 -14 21 -32q0 -13 -11 -27l-10 -13q-14 -20 -32 -20q-13 0 -27 10 l-13 8q-20 14 -20 33q0 13 10 27zM502 893l145 203q12 19 30 19q15 0 34 -13l225 -158q25 -18 25 -39q0 -12 -9 -24l-145 -203q-12 -19 -30 -19q-15 0 -34 13l-225 159q-24 17 -24 37q0 12 8 25zM532 393l9 13q14 20 32 20q13 0 27 -10l12 -8q20 -14 21 -33q0 -13 -10 -27 l-9 -12q-14 -20 -32 -21q-13 0 -27 11l-12 8q-20 14 -21 32q0 13 10 27zM623 522l8 13q14 20 32 20q13 0 27 -10l12 -8q20 -14 21 -33q0 -13 -10 -27l-8 -12q-14 -20 -33 -21q-13 0 -27 11l-12 8q-20 14 -21 32q1 13 11 27zM770 1628l21 -164l83 11l-20 163zM926 1460 l69 -49l95 135l-70 49zM1024 1370l162 35l18 -82l-162 -37z" />
<glyph unicode="&#xfb02;" horiz-adv-x="3086" d="M1266 498q0 72 86 129q76 -72 219 -72q29 0 62 2q-6 49 -17 123q-35 -4 -63 -4q-98 0 -146 43q59 86 113 106q39 16 225 43q115 213 148 265q92 147 147 155h2q96 0 96 -190q0 -82 -18 -199q240 41 440 70q55 141 125 295q2 0 15 4q12 2 26 2q25 0 62 -6q1 -18 0 -37 q0 -113 -21 -254q35 -33 35 -111q154 -66 154 -104q0 -25 -54 -25q-41 0 -139 37q-129 -80 -409 -195q135 -47 354 -143q100 -55 100 -90q0 -41 -86 -59q-57 -14 -115 -15q-90 0 -215 23q-221 39 -487 133q-252 -59 -414 -59t-200 57q-25 39 -25 76zM1868 565h5q27 0 47 20 q22 22 22 52q-2 31 -23.5 53.5t-50.5 22.5q-72 0 -72 -70q0 -78 72 -78zM2063 694q0 -31 21.5 -52t53.5 -21q31 0 52.5 21.5t21.5 51.5q0 31 -21.5 52.5t-52.5 21.5q-75 0 -75 -74zM0 326q0 -72 61 -115l263 -184q39 -27 84 -27q63 0 98 49l561 795q20 29 20 65 q0 72 -63 115l-195 137l103 146q12 18 12 34q0 24 -26 43q-18 12 -35 13q-23 0 -41 -27l-105 -147q-29 12 -57 12q-66 0 -98 -49l-562 -795q-20 -28 -20 -65zM160 463l10 12q14 20 32 21q13 0 27 -11l13 -8q20 -14 20 -32q0 -13 -10 -27l-10 -12q-14 -20 -33 -21 q-13 0 -27 10l-12 8q-20 14 -20 33q0 13 10 27zM252 592l8 12q14 20 32 21q13 0 27 -11l13 -8q20 -14 20 -32q0 -13 -10 -27l-8 -12q-14 -20 -33 -21q-13 0 -27 10l-12 8q-20 14 -20 33q0 13 10 27zM299 367l8 10q15 21 34 21q12 0 26 -9l12 -10q20 -14 20 -32 q0 -13 -10 -28l-8 -12q-14 -20 -32 -20q-13 0 -27 10l-13 10q-20 13 -20 32q0 13 10 28zM342 719l8 12q14 20 33 21q13 0 27 -11l12 -8q20 -14 20 -32q0 -13 -10 -27l-8 -12q-14 -20 -32 -21q-13 0 -27 10l-13 8q-20 14 -20 33q0 13 10 27zM389 494l10 12q14 20 33 20 q13 0 27 -10l12 -8q20 -14 20 -32q0 -13 -10 -27l-10 -13q-14 -20 -32 -20q-13 0 -27 10l-13 8q-20 14 -20 33q0 13 10 27zM440 266l11 13q14 20 32 20q13 0 27 -10l12 -10q20 -13 21 -32q0 -13 -11 -28l-10 -12q-13 -20 -31 -21q-13 0 -28 11l-10 10q-21 15 -22 33 q0 12 9 26zM479 623l10 12q14 20 33 20q13 0 27 -10l12 -8q20 -14 21 -32q0 -13 -11 -27l-10 -13q-14 -20 -32 -20q-13 0 -27 10l-13 8q-20 14 -20 33q0 13 10 27zM502 893l145 203q12 19 30 19q15 0 34 -13l225 -158q25 -18 25 -39q0 -12 -9 -24l-145 -203q-12 -19 -30 -19 q-15 0 -34 13l-225 159q-24 17 -24 37q0 12 8 25zM532 393l9 13q14 20 32 20q13 0 27 -10l12 -8q20 -14 21 -33q0 -13 -10 -27l-9 -12q-14 -20 -32 -21q-13 0 -27 11l-12 8q-20 14 -21 32q0 13 10 27zM623 522l8 13q14 20 32 20q13 0 27 -10l12 -8q20 -14 21 -33 q0 -13 -10 -27l-8 -12q-14 -20 -33 -21q-13 0 -27 11l-12 8q-20 14 -21 32q1 13 11 27zM770 1628l21 -164l83 11l-20 163zM926 1460l69 -49l95 135l-70 49zM1024 1370l162 35l18 -82l-162 -37z" />
<glyph unicode="&#xfb03;" horiz-adv-x="4560" d="M2537 365l8 327q2 76 66 111l78 414q23 88 86 137q49 37 100 43h4l885 -2q98 -12 152 -78q41 -49 47 -113l82 -346l307 -22q53 -4 91 -40t38 -89v-342q0 -55 -38 -93.5t-91 -38.5h-150q-14 -98 -89 -163.5t-175 -65.5t-175 65.5t-87 163.5h-434q-12 -98 -87 -163.5 t-175 -65.5t-175 65.5t-88 163.5h-49q-55 0 -93 39.5t-38 92.5zM2801 827l445 4v383h-350q-23 -10 -29 -40zM2867 266q0 -47 34 -80.5t81 -33.5t80.5 33.5t33.5 80.5t-33.5 81t-80.5 34t-81 -34t-34 -81zM3430 831h432l-82 359q-2 18 -34 24h-316v-383zM3821 270 q0 -47 34 -80.5t81 -33.5q49 0 82 33.5t33 80.5t-33 81t-82 34q-47 0 -81 -34t-34 -81zM1264 326q0 -72 61 -115l263 -184q39 -27 84 -27q63 0 98 49l561 795q20 29 20 65q0 72 -63 115l-195 137l103 146q12 18 12 34q0 24 -26 43q-18 12 -35 13q-23 0 -41 -27l-105 -147 q-29 12 -57 12q-66 0 -98 -49l-562 -795q-20 -28 -20 -65zM1424 463l10 12q14 20 32 21q13 0 27 -11l13 -8q20 -14 20 -32q0 -13 -10 -27l-10 -12q-14 -20 -33 -21q-13 0 -27 10l-12 8q-20 14 -20 33q0 13 10 27zM1516 592l8 12q14 20 32 21q13 0 27 -11l13 -8 q20 -14 20 -32q0 -13 -10 -27l-8 -12q-14 -20 -33 -21q-13 0 -27 10l-12 8q-20 14 -20 33q0 13 10 27zM1563 367l8 10q15 21 34 21q12 0 26 -9l12 -10q20 -14 20 -32q0 -13 -10 -28l-8 -12q-14 -20 -32 -20q-13 0 -27 10l-13 10q-20 13 -20 32q0 13 10 28zM1606 719l8 12 q14 20 33 21q13 0 27 -11l12 -8q20 -14 20 -32q0 -13 -10 -27l-8 -12q-14 -20 -32 -21q-13 0 -27 10l-13 8q-20 14 -20 33q0 13 10 27zM1653 494l10 12q14 20 33 20q13 0 27 -10l12 -8q20 -14 20 -32q0 -13 -10 -27l-10 -13q-14 -20 -32 -20q-13 0 -27 10l-13 8 q-20 14 -20 33q0 13 10 27zM1704 266l11 13q14 20 32 20q13 0 27 -10l12 -10q20 -13 21 -32q0 -13 -11 -28l-10 -12q-13 -20 -31 -21q-13 0 -28 11l-10 10q-21 15 -22 33q0 12 9 26zM1743 623l10 12q14 20 33 20q13 0 27 -10l12 -8q20 -14 21 -32q0 -13 -11 -27l-10 -13 q-14 -20 -32 -20q-13 0 -27 10l-13 8q-20 14 -20 33q0 13 10 27zM1766 893l145 203q12 19 30 19q15 0 34 -13l225 -158q25 -18 25 -39q0 -12 -9 -24l-145 -203q-12 -19 -30 -19q-15 0 -34 13l-225 159q-24 17 -24 37q0 12 8 25zM1796 393l9 13q14 20 32 20q13 0 27 -10 l12 -8q20 -14 21 -33q0 -13 -10 -27l-9 -12q-14 -20 -32 -21q-13 0 -27 11l-12 8q-20 14 -21 32q0 13 10 27zM1887 522l8 13q14 20 32 20q13 0 27 -10l12 -8q20 -14 21 -33q0 -13 -10 -27l-8 -12q-14 -20 -33 -21q-13 0 -27 11l-12 8q-20 14 -21 32q1 13 11 27zM2034 1628 l21 -164l83 11l-20 163zM2190 1460l69 -49l95 135l-70 49zM2288 1370l162 35l18 -82l-162 -37zM0 326q0 -72 61 -115l263 -184q39 -27 84 -27q63 0 98 49l561 795q20 29 20 65q0 72 -63 115l-195 137l103 146q12 18 12 34q0 24 -26 43q-18 12 -35 13q-23 0 -41 -27 l-105 -147q-29 12 -57 12q-66 0 -98 -49l-562 -795q-20 -28 -20 -65zM160 463l10 12q14 20 32 21q13 0 27 -11l13 -8q20 -14 20 -32q0 -13 -10 -27l-10 -12q-14 -20 -33 -21q-13 0 -27 10l-12 8q-20 14 -20 33q0 13 10 27zM252 592l8 12q14 20 32 21q13 0 27 -11l13 -8 q20 -14 20 -32q0 -13 -10 -27l-8 -12q-14 -20 -33 -21q-13 0 -27 10l-12 8q-20 14 -20 33q0 13 10 27zM299 367l8 10q15 21 34 21q12 0 26 -9l12 -10q20 -14 20 -32q0 -13 -10 -28l-8 -12q-14 -20 -32 -20q-13 0 -27 10l-13 10q-20 13 -20 32q0 13 10 28zM342 719l8 12 q14 20 33 21q13 0 27 -11l12 -8q20 -14 20 -32q0 -13 -10 -27l-8 -12q-14 -20 -32 -21q-13 0 -27 10l-13 8q-20 14 -20 33q0 13 10 27zM389 494l10 12q14 20 33 20q13 0 27 -10l12 -8q20 -14 20 -32q0 -13 -10 -27l-10 -13q-14 -20 -32 -20q-13 0 -27 10l-13 8 q-20 14 -20 33q0 13 10 27zM440 266l11 13q14 20 32 20q13 0 27 -10l12 -10q20 -13 21 -32q0 -13 -11 -28l-10 -12q-13 -20 -31 -21q-13 0 -28 11l-10 10q-21 15 -22 33q0 12 9 26zM479 623l10 12q14 20 33 20q13 0 27 -10l12 -8q20 -14 21 -32q0 -13 -11 -27l-10 -13 q-14 -20 -32 -20q-13 0 -27 10l-13 8q-20 14 -20 33q0 13 10 27zM502 893l145 203q12 19 30 19q15 0 34 -13l225 -158q25 -18 25 -39q0 -12 -9 -24l-145 -203q-12 -19 -30 -19q-15 0 -34 13l-225 159q-24 17 -24 37q0 12 8 25zM532 393l9 13q14 20 32 20q13 0 27 -10l12 -8 q20 -14 21 -33q0 -13 -10 -27l-9 -12q-14 -20 -32 -21q-13 0 -27 11l-12 8q-20 14 -21 32q0 13 10 27zM623 522l8 13q14 20 32 20q13 0 27 -10l12 -8q20 -14 21 -33q0 -13 -10 -27l-8 -12q-14 -20 -33 -21q-13 0 -27 11l-12 8q-20 14 -21 32q1 13 11 27zM770 1628l21 -164 l83 11l-20 163zM926 1460l69 -49l95 135l-70 49zM1024 1370l162 35l18 -82l-162 -37z" />
<glyph unicode="&#xfb04;" horiz-adv-x="4349" d="M2529 498q0 72 86 129q76 -72 219 -72q29 0 62 2q-6 49 -17 123q-35 -4 -63 -4q-98 0 -146 43q59 86 113 106q39 16 225 43q115 213 148 265q92 147 147 155h2q96 0 96 -190q0 -82 -18 -199q240 41 440 70q55 141 125 295q2 0 15 4q12 2 26 2q25 0 62 -6q1 -18 0 -37 q0 -113 -21 -254q35 -33 35 -111q154 -66 154 -104q0 -25 -54 -25q-41 0 -139 37q-129 -80 -409 -195q135 -47 354 -143q100 -55 100 -90q0 -41 -86 -59q-57 -14 -115 -15q-90 0 -215 23q-221 39 -487 133q-252 -59 -414 -59t-200 57q-25 39 -25 76zM3131 565h5q27 0 47 20 q22 22 22 52q-2 31 -23.5 53.5t-50.5 22.5q-72 0 -72 -70q0 -78 72 -78zM3326 694q0 -31 21.5 -52t53.5 -21q31 0 52.5 21.5t21.5 51.5q0 31 -21.5 52.5t-52.5 21.5q-75 0 -75 -74zM1264 326q0 -72 61 -115l263 -184q39 -27 84 -27q63 0 98 49l561 795q20 29 20 65 q0 72 -63 115l-195 137l103 146q12 18 12 34q0 24 -26 43q-18 12 -35 13q-23 0 -41 -27l-105 -147q-29 12 -57 12q-66 0 -98 -49l-562 -795q-20 -28 -20 -65zM1424 463l10 12q14 20 32 21q13 0 27 -11l13 -8q20 -14 20 -32q0 -13 -10 -27l-10 -12q-14 -20 -33 -21 q-13 0 -27 10l-12 8q-20 14 -20 33q0 13 10 27zM1516 592l8 12q14 20 32 21q13 0 27 -11l13 -8q20 -14 20 -32q0 -13 -10 -27l-8 -12q-14 -20 -33 -21q-13 0 -27 10l-12 8q-20 14 -20 33q0 13 10 27zM1563 367l8 10q15 21 34 21q12 0 26 -9l12 -10q20 -14 20 -32 q0 -13 -10 -28l-8 -12q-14 -20 -32 -20q-13 0 -27 10l-13 10q-20 13 -20 32q0 13 10 28zM1606 719l8 12q14 20 33 21q13 0 27 -11l12 -8q20 -14 20 -32q0 -13 -10 -27l-8 -12q-14 -20 -32 -21q-13 0 -27 10l-13 8q-20 14 -20 33q0 13 10 27zM1653 494l10 12q14 20 33 20 q13 0 27 -10l12 -8q20 -14 20 -32q0 -13 -10 -27l-10 -13q-14 -20 -32 -20q-13 0 -27 10l-13 8q-20 14 -20 33q0 13 10 27zM1704 266l11 13q14 20 32 20q13 0 27 -10l12 -10q20 -13 21 -32q0 -13 -11 -28l-10 -12q-13 -20 -31 -21q-13 0 -28 11l-10 10q-21 15 -22 33 q0 12 9 26zM1743 623l10 12q14 20 33 20q13 0 27 -10l12 -8q20 -14 21 -32q0 -13 -11 -27l-10 -13q-14 -20 -32 -20q-13 0 -27 10l-13 8q-20 14 -20 33q0 13 10 27zM1766 893l145 203q12 19 30 19q15 0 34 -13l225 -158q25 -18 25 -39q0 -12 -9 -24l-145 -203 q-12 -19 -30 -19q-15 0 -34 13l-225 159q-24 17 -24 37q0 12 8 25zM1796 393l9 13q14 20 32 20q13 0 27 -10l12 -8q20 -14 21 -33q0 -13 -10 -27l-9 -12q-14 -20 -32 -21q-13 0 -27 11l-12 8q-20 14 -21 32q0 13 10 27zM1887 522l8 13q14 20 32 20q13 0 27 -10l12 -8 q20 -14 21 -33q0 -13 -10 -27l-8 -12q-14 -20 -33 -21q-13 0 -27 11l-12 8q-20 14 -21 32q1 13 11 27zM2034 1628l21 -164l83 11l-20 163zM2190 1460l69 -49l95 135l-70 49zM2288 1370l162 35l18 -82l-162 -37zM0 326q0 -72 61 -115l263 -184q39 -27 84 -27q63 0 98 49 l561 795q20 29 20 65q0 72 -63 115l-195 137l103 146q12 18 12 34q0 24 -26 43q-18 12 -35 13q-23 0 -41 -27l-105 -147q-29 12 -57 12q-66 0 -98 -49l-562 -795q-20 -28 -20 -65zM160 463l10 12q14 20 32 21q13 0 27 -11l13 -8q20 -14 20 -32q0 -13 -10 -27l-10 -12 q-14 -20 -33 -21q-13 0 -27 10l-12 8q-20 14 -20 33q0 13 10 27zM252 592l8 12q14 20 32 21q13 0 27 -11l13 -8q20 -14 20 -32q0 -13 -10 -27l-8 -12q-14 -20 -33 -21q-13 0 -27 10l-12 8q-20 14 -20 33q0 13 10 27zM299 367l8 10q15 21 34 21q12 0 26 -9l12 -10 q20 -14 20 -32q0 -13 -10 -28l-8 -12q-14 -20 -32 -20q-13 0 -27 10l-13 10q-20 13 -20 32q0 13 10 28zM342 719l8 12q14 20 33 21q13 0 27 -11l12 -8q20 -14 20 -32q0 -13 -10 -27l-8 -12q-14 -20 -32 -21q-13 0 -27 10l-13 8q-20 14 -20 33q0 13 10 27zM389 494l10 12 q14 20 33 20q13 0 27 -10l12 -8q20 -14 20 -32q0 -13 -10 -27l-10 -13q-14 -20 -32 -20q-13 0 -27 10l-13 8q-20 14 -20 33q0 13 10 27zM440 266l11 13q14 20 32 20q13 0 27 -10l12 -10q20 -13 21 -32q0 -13 -11 -28l-10 -12q-13 -20 -31 -21q-13 0 -28 11l-10 10 q-21 15 -22 33q0 12 9 26zM479 623l10 12q14 20 33 20q13 0 27 -10l12 -8q20 -14 21 -32q0 -13 -11 -27l-10 -13q-14 -20 -32 -20q-13 0 -27 10l-13 8q-20 14 -20 33q0 13 10 27zM502 893l145 203q12 19 30 19q15 0 34 -13l225 -158q25 -18 25 -39q0 -12 -9 -24l-145 -203 q-12 -19 -30 -19q-15 0 -34 13l-225 159q-24 17 -24 37q0 12 8 25zM532 393l9 13q14 20 32 20q13 0 27 -10l12 -8q20 -14 21 -33q0 -13 -10 -27l-9 -12q-14 -20 -32 -21q-13 0 -27 11l-12 8q-20 14 -21 32q0 13 10 27zM623 522l8 13q14 20 32 20q13 0 27 -10l12 -8 q20 -14 21 -33q0 -13 -10 -27l-8 -12q-14 -20 -33 -21q-13 0 -27 11l-12 8q-20 14 -21 32q1 13 11 27zM770 1628l21 -164l83 11l-20 163zM926 1460l69 -49l95 135l-70 49zM1024 1370l162 35l18 -82l-162 -37z" />
</font>
</defs>
</svg>
