<?xml version="1.0" encoding="utf-8"?>
<!-- Generator: Adobe Illustrator 15.0.0, SVG Export Plug-In . SVG Version: 6.00 Build 0)  -->
<!DOCTYPE svg PUBLIC "-//W3C//DTD SVG 1.1//EN" "http://www.w3.org/Graphics/SVG/1.1/DTD/svg11.dtd">
<svg version="1.1" id="icon" xmlns="http://www.w3.org/2000/svg" xmlns:xlink="http://www.w3.org/1999/xlink" x="0px" y="0px"
	 width="32px" height="19.995px" viewBox="0 0 32 19.995" enable-background="new 0 0 32 19.995" xml:space="preserve">
<path fill="#676767" d="M16.352,14.938c-2.738-0.998-3.614-1.839-3.614-3.642c0-1.082,0.836-0.729,1.203-2.711
	c0.152-0.82,0.892-0.014,1.032-1.89c0-0.747-0.403-0.933-0.403-0.933s0.205-1.107,0.285-1.959C14.955,2.742,14.242,0,10.442,0
	C6.641,0,5.928,2.742,6.028,3.803c0.08,0.852,0.285,1.959,0.285,1.959S5.91,5.948,5.91,6.695c0.141,1.876,0.88,1.07,1.033,1.89
	c0.367,1.982,1.203,1.629,1.203,2.711c0,1.803-0.875,2.644-3.614,3.642C1.785,15.939,0,16.959,0,17.655c0,0.697,0,2.34,0,2.34
	h10.442h10.442c0,0,0-1.643,0-2.34C20.884,16.959,19.099,15.939,16.352,14.938z"/>
<rect x="19.994" y="3.964" fill="#676767" width="12.006" height="1.976"/>
<rect x="17.981" y="9.01" fill="#676767" width="14.019" height="1.976"/>
<rect x="23.013" y="13.966" fill="#676767" width="8.987" height="1.976"/>
</svg>
